<svg width="20" height="20" viewBox="0 0 20 20" fill="none" xmlns="http://www.w3.org/2000/svg">
<path d="M1.99989 9.93658C1.99989 7.56847 1.9952 5.20036 1.99989 2.83225C1.99989 1.53799 2.83459 0.417239 4.04444 0.0889862C4.26014 0.0327142 4.48992 -0.00011115 4.71501 -0.00011115C6.76425 -0.00480048 8.8088 0.00457818 10.858 -0.00011115C11.7631 -0.00480048 12.5087 0.318763 13.1371 0.965891C14.4501 2.3258 15.7725 3.68101 17.0995 5.02685C17.7279 5.6646 18.0233 6.41021 18.0233 7.30118C18.014 10.5509 18.0233 13.8053 18.0186 17.055C18.0186 18.5462 17.062 19.6951 15.6083 19.9624C15.4254 19.9952 15.2332 19.9999 15.0503 19.9999C11.6974 19.9999 8.34455 20.0046 4.99168 19.9999C3.24725 19.9999 2.00927 18.7619 2.00927 17.0175C1.99989 14.6587 1.99989 12.3 1.99989 9.93658ZM9.99051 12.2062C8.95886 12.2062 7.9272 12.2015 6.90024 12.2109C6.40786 12.2156 6.12181 12.5251 6.11712 13.0128C6.11712 13.4723 6.44068 13.8381 6.89086 13.8428C8.96823 13.8522 11.0456 13.8475 13.123 13.8428C13.5685 13.8428 13.9014 13.4864 13.9061 13.0456C13.9108 12.5532 13.5638 12.2109 13.0386 12.2109C12.021 12.2015 11.0034 12.2062 9.99051 12.2062ZM8.48054 8.10774C7.95534 8.10774 7.43482 8.10306 6.90962 8.11243C6.48758 8.12181 6.16401 8.40786 6.11712 8.80177C6.05147 9.34104 6.40786 9.73963 6.98934 9.74432C7.97879 9.7537 8.97292 9.74901 9.96237 9.74432C10.0468 9.74432 10.1359 9.73494 10.2203 9.71618C10.5345 9.65991 10.7502 9.43952 10.8065 9.12533C10.9049 8.53447 10.5579 8.11243 9.95768 8.10774C9.4653 8.10306 8.97292 8.10774 8.48054 8.10774Z"/>
</svg>
