<svg width="16" height="16" viewBox="0 0 16 16" fill="none" xmlns="http://www.w3.org/2000/svg">
<path d="M5.02771 5.63734C5.02771 5.53882 5.02771 5.46584 5.02771 5.39287C5.02771 3.88591 5.02771 2.37531 5.02771 0.868351C5.02771 0.394006 5.30137 0.0802093 5.77572 0.0145309C5.86694 0.00358444 5.95816 -6.43617e-05 6.04938 -6.43617e-05C7.352 -6.43617e-05 8.65098 -0.00371316 9.9536 0.00358444C10.1324 0.00358444 10.3221 0.0327749 10.4863 0.0984533C10.8074 0.226161 10.9789 0.470631 10.9789 0.831863C10.9753 2.35341 10.9753 3.87132 10.9753 5.39287C10.9753 5.46584 10.9753 5.53882 10.9753 5.63734C11.0482 5.63734 11.1139 5.63734 11.1759 5.63734C11.7415 5.63734 12.3071 5.63369 12.8726 5.64099C13.0113 5.64099 13.1536 5.65558 13.285 5.69207C13.6827 5.80518 13.8761 6.16276 13.7192 6.54589C13.6425 6.72833 13.5185 6.91442 13.3689 7.04577C11.8692 8.37029 10.3623 9.68386 8.85896 11.0047C8.51962 11.3003 8.14379 11.4499 7.70229 11.3185C7.5235 11.2638 7.34106 11.1653 7.19875 11.0412C5.66626 9.7094 4.13741 8.37394 2.61221 7.03118C2.4845 6.91807 2.37139 6.76847 2.30206 6.61157C2.10138 6.17736 2.3203 5.76869 2.78735 5.67018C2.91871 5.64463 3.05371 5.63734 3.18507 5.63734C3.79442 5.63734 4.40012 5.63734 5.02771 5.63734Z"/>
<path d="M7.98325 15.9998C6.18804 15.9998 4.39648 15.9998 2.60127 15.9998C2.33125 15.9998 2.08314 15.9414 1.8715 15.7663C1.64528 15.5802 1.53946 15.3357 1.53946 15.0475C1.53946 14.6899 1.53581 14.3287 1.53946 13.9711C1.54676 13.4603 1.8934 13.0881 2.40058 13.0333C2.4918 13.0224 2.58302 13.0224 2.67424 13.0224C6.22453 13.0224 9.77481 13.0187 13.3251 13.026C13.5148 13.026 13.7192 13.0516 13.8943 13.1209C14.2519 13.2669 14.4453 13.5515 14.4489 13.9455C14.4526 14.2922 14.4343 14.6388 14.4526 14.9855C14.4891 15.6057 13.9855 16.0071 13.4346 15.9998C12.7887 15.9925 12.1465 15.9998 11.5007 15.9998C10.3294 15.9998 9.15451 15.9998 7.98325 15.9998Z"/>
</svg>
