<svg width="16" height="16" viewBox="0 0 16 16" fill="none" xmlns="http://www.w3.org/2000/svg">
<path d="M8.02948 8.97168C8.02948 9.55906 8.02948 10.1277 8.02948 10.6932C8.02948 10.9432 8.03261 11.1931 8.02948 11.4431C8.02636 11.6524 8.09822 11.8242 8.29193 11.918C8.47939 12.0086 8.65123 11.9711 8.81995 11.8492C10.5134 10.637 12.2068 9.42784 13.9002 8.2187C14.5095 7.78441 15.1187 7.347 15.728 6.9127C16.0873 6.65651 16.0904 6.30657 15.7311 6.05037C13.4503 4.41944 11.1664 2.79163 8.88556 1.1607C8.81058 1.10759 8.73247 1.05135 8.64499 1.02011C8.33255 0.907627 8.02948 1.13883 8.02948 1.49501C8.02636 2.14176 8.02948 2.78539 8.02948 3.43213C8.02948 3.62585 8.02948 3.81643 8.02948 4.02264C7.79515 4.06014 7.56395 4.08826 7.33899 4.132C4.01776 4.80374 1.81194 6.75336 0.687165 9.93711C0.280994 11.0931 0.0904064 12.2929 0.0279188 13.5145C0.0122967 13.8364 0.00292492 14.1582 -0.000200272 14.4831C-0.00332451 14.758 0.181014 14.9611 0.437214 14.9799C0.671543 14.9986 0.874628 14.8268 0.933991 14.5737C1.55262 11.893 3.20855 10.1777 5.80179 9.33411C6.51728 9.09978 7.25776 8.9998 8.02948 8.97168Z"/>
</svg>
