<svg width="16" height="16" viewBox="0 0 16 16" fill="none" xmlns="http://www.w3.org/2000/svg">
<path d="M1.31685 5.06324C1.31685 4.36582 1.31372 3.66527 1.31685 2.96785C1.31685 2.53939 1.52952 2.32047 1.95798 2.31734C2.86494 2.31109 3.75313 2.20788 4.62569 1.94205C5.66087 1.62931 6.57096 1.10077 7.37158 0.378328C7.44977 0.309525 7.52483 0.234466 7.60301 0.165662C7.86572 -0.0626411 8.16595 -0.0595137 8.43491 0.165662C8.78206 0.456514 9.11982 0.759876 9.49199 1.01945C10.4396 1.6856 11.5061 2.05777 12.6476 2.20788C13.1167 2.27043 13.5921 2.28607 14.0643 2.30796C14.5022 2.32985 14.7148 2.53001 14.7179 2.96785C14.7273 4.11562 14.7555 5.26027 14.7367 6.40804C14.7117 7.83103 14.5366 9.23212 14.0549 10.5832C13.4294 12.3377 12.3317 13.7169 10.7742 14.7364C9.98925 15.2493 9.14484 15.6371 8.26603 15.9499C8.10653 16.0062 7.95329 16.0155 7.79379 15.9561C6.57721 15.5277 5.43569 14.9585 4.43804 14.1297C3.24023 13.1352 2.41458 11.8873 1.92045 10.4174C1.63272 9.56363 1.45759 8.68795 1.38878 7.79037C1.32311 6.88341 1.29183 5.9702 1.24805 5.06011C1.26994 5.06637 1.29496 5.06324 1.31685 5.06324ZM10.3145 5.51985C9.27307 6.50812 8.24727 7.48388 7.21208 8.46902C6.73984 7.94674 6.2801 7.43384 5.81411 6.91781C5.52013 7.18052 5.24179 7.42759 4.96032 7.67778C4.9916 7.71844 5.01349 7.74658 5.03851 7.7716C5.58894 8.38146 6.13937 8.99444 6.69293 9.60429C6.97752 9.91703 7.3059 9.92641 7.61865 9.63243C8.7414 8.57536 9.86415 7.51828 10.99 6.46433C11.0244 6.43306 11.0651 6.41117 11.112 6.37676C10.8368 6.07966 10.5803 5.80444 10.3145 5.51985Z"/>
</svg>
