<svg width="20" height="20" viewBox="0 0 20 20" fill="none" xmlns="http://www.w3.org/2000/svg">
<path d="M13.8644 3.94771C14.4501 3.94771 15.0358 3.936 15.6215 3.94771C16.3869 3.95943 16.9687 4.50999 17.0272 5.27141C17.1756 7.11835 17.3162 8.96528 17.4646 10.8161C17.613 12.6904 17.7535 14.5647 17.9175 16.435C18.0776 18.3015 16.6407 19.9532 14.7625 19.9883C13.2006 20.0157 11.6387 19.9961 10.0768 19.9961C8.50714 19.9961 6.94134 20 5.37165 19.9961C3.82537 19.9922 2.57977 19.0278 2.17368 17.5401C2.0253 17.0012 2.07996 16.4584 2.12291 15.9118C2.22444 14.6623 2.32206 13.4089 2.42358 12.1593C2.53681 10.7576 2.64615 9.35966 2.75938 7.95786C2.82967 7.09101 2.90386 6.22026 2.96633 5.35341C3.02491 4.5139 3.6028 3.95552 4.43842 3.95162C5.0046 3.94771 5.57079 3.95162 6.13697 3.95552L6.13307 3.95162C6.13307 4.74037 6.13697 5.52522 6.13697 6.31397C6.13697 6.38426 6.13697 6.45845 6.13697 6.52873C6.14478 6.89187 6.39078 7.15349 6.72268 7.15349C7.05458 7.15349 7.30448 6.89187 7.30448 6.52873C7.30839 5.66969 7.30839 4.81066 7.30839 3.95162L7.30448 3.95552C9.10066 3.95552 10.9007 3.95552 12.6969 3.95552L12.693 3.95162C12.693 4.80285 12.693 5.65408 12.6969 6.50921C12.6969 6.80987 12.8336 7.02073 13.0718 7.11444C13.4661 7.26673 13.8605 6.98168 13.8644 6.52873C13.8722 5.66969 13.8683 4.81066 13.8683 3.95162L13.8644 3.94771ZM9.19828 12.5381C9.14751 12.4912 9.10066 12.4483 9.0538 12.4014C8.77657 12.1242 8.50323 11.8509 8.226 11.5736C8.06981 11.4174 7.88629 11.3315 7.66372 11.3823C7.44505 11.4292 7.29277 11.5619 7.22248 11.7806C7.14439 12.0188 7.21858 12.2179 7.38258 12.3858C7.8121 12.8192 8.24552 13.2527 8.67895 13.6861C9.04599 14.0531 9.33884 14.0531 9.70198 13.69C10.6469 12.749 11.588 11.804 12.5329 10.863C12.5759 10.82 12.6149 10.781 12.654 10.7341C12.8648 10.4842 12.857 10.1601 12.6422 9.93756C12.4236 9.71108 12.0839 9.69937 11.8301 9.91413C11.7754 9.96099 11.7246 10.0117 11.6739 10.0625C10.8539 10.8864 10.03 11.7103 9.19828 12.5381Z"/>
<path d="M6.13696 3.9477C6.11744 1.76106 7.85114 -0.00778369 10.0104 2.57599e-05C12.1659 0.00783521 13.8878 1.76887 13.8644 3.9477L13.8683 3.9438C13.4778 3.9438 13.0835 3.9438 12.693 3.9438L12.6969 3.9477C12.693 3.88913 12.693 3.83056 12.6891 3.77199C12.6227 1.83134 10.5727 0.589639 8.83513 1.44477C7.81209 1.94848 7.3279 2.81143 7.30447 3.9438L7.30838 3.93989C6.91791 3.93989 6.52353 3.93989 6.13306 3.93989L6.13696 3.9477Z"/>
</svg>
