<svg width="17" height="16" viewBox="0 0 17 16" fill="none" xmlns="http://www.w3.org/2000/svg">
<path d="M7.84295 8.65683C7.9429 8.65683 8.02144 8.65683 8.09641 8.65683C10.1134 8.65683 12.1303 8.65683 14.1437 8.65683C14.54 8.65683 14.6114 8.72823 14.6042 9.12805C14.5257 12.5729 11.909 15.4859 8.49623 15.9286C4.67293 16.4248 1.21376 13.8438 0.592612 10.0276C1.96099e-05 6.38642 2.43822 2.82729 6.0616 2.07049C6.50783 1.97767 6.96477 1.94197 7.42171 1.90271C7.75727 1.87415 7.84652 1.97767 7.84652 2.31324C7.84652 4.3409 7.84652 6.36857 7.84652 8.39623C7.84295 8.4712 7.84295 8.54974 7.84295 8.65683Z"/>
<path d="M12.8584 7.33239C11.7696 7.33239 10.6808 7.33239 9.59195 7.33239C9.23854 7.33239 9.16357 7.25742 9.16357 6.90044C9.16357 4.74069 9.16357 2.58094 9.16357 0.424755C9.16357 0.0713418 9.24211 -0.00719454 9.59195 -5.48723e-05C12.9476 0.0499228 15.8499 2.54881 16.3925 5.86161C16.4532 6.22217 16.4746 6.59343 16.496 6.96112C16.5139 7.23243 16.4103 7.32525 16.1426 7.32525C15.0502 7.32525 13.9543 7.32525 12.8619 7.32525C12.8584 7.32525 12.8584 7.32882 12.8584 7.33239Z"/>
</svg>
