<svg width="20" height="20" viewBox="0 0 20 20" fill="none" xmlns="http://www.w3.org/2000/svg">
<path d="M9.9629 11.2147C9.9629 11.9489 9.9629 12.6597 9.9629 13.3666C9.9629 13.679 9.959 13.9915 9.9629 14.3039C9.96681 14.5656 9.87698 14.7804 9.63484 14.8975C9.40051 15.0108 9.18571 14.9639 8.97482 14.8116C6.85804 13.2963 4.74127 11.7849 2.62449 10.2734C1.86292 9.73057 1.10135 9.1838 0.339784 8.64094C-0.109347 8.32069 -0.113253 7.88328 0.335878 7.56303C3.18688 5.52436 6.04179 3.4896 8.8928 1.45094C8.98653 1.38455 9.08417 1.31425 9.19352 1.27519C9.58407 1.1346 9.9629 1.4236 9.9629 1.86883C9.96681 2.67726 9.9629 3.48179 9.9629 4.29023C9.9629 4.53237 9.9629 4.7706 9.9629 5.02837C10.2558 5.07523 10.5448 5.11038 10.826 5.16506C14.9775 6.00474 17.7348 8.44176 19.1408 12.4215C19.6485 13.8665 19.8867 15.3662 19.9649 16.8932C19.9844 17.2955 19.9961 17.6978 20 18.1039C20.0039 18.4476 19.7735 18.7015 19.4532 18.7249C19.1603 18.7483 18.9065 18.5335 18.8323 18.2172C18.059 14.8663 15.9891 12.7222 12.7475 11.6677C11.8532 11.3748 10.9276 11.2498 9.9629 11.2147Z"/>
</svg>
