<svg width="16" height="16" viewBox="0 0 16 16" fill="none" xmlns="http://www.w3.org/2000/svg">
<path d="M8.00129 3.38265C8.14377 3.17019 8.27625 2.96022 8.42122 2.75775C8.92864 2.04786 9.56854 1.49795 10.3884 1.178C11.0083 0.935534 11.6507 0.880543 12.3056 0.968029C13.0755 1.07051 13.7629 1.36297 14.3628 1.85789C15.0302 2.4103 15.4851 3.1052 15.7451 3.92507C16.13 5.13988 16.0825 6.33969 15.5926 7.51451C15.3051 8.2044 14.8852 8.8143 14.4053 9.38421C13.6229 10.3166 12.7281 11.1314 11.8107 11.9263C10.6634 12.9212 9.50855 13.911 8.35623 14.9034C8.13377 15.0958 7.87631 15.1033 7.66384 14.9208C6.20657 13.6585 4.7418 12.4037 3.29702 11.1289C2.57214 10.489 1.89724 9.79665 1.30983 9.02427C0.752421 8.29688 0.314989 7.50701 0.11752 6.60215C-0.0449548 5.84977 -0.0374559 5.09738 0.135017 4.3475C0.342485 3.44514 0.762419 2.65777 1.44481 2.02286C2.04972 1.46045 2.75961 1.11301 3.57948 0.985526C4.30687 0.870544 5.01675 0.930535 5.69915 1.21299C6.43653 1.52044 7.02644 2.01787 7.50137 2.65277C7.67634 2.88523 7.83132 3.13269 8.00129 3.38265Z"/>
</svg>
