<svg width="20" height="20" viewBox="0 0 20 20" fill="none" xmlns="http://www.w3.org/2000/svg">
<path d="M9.98854 19.9952C7.72947 19.9952 5.4704 19.9952 3.21132 19.9952C1.74052 19.9952 0.759991 19.0195 0.759991 17.5487C0.759991 13.5592 0.755184 9.57462 0.764797 5.5852C0.764797 5.35448 0.817669 5.10454 0.9138 4.89305C1.4281 3.73468 1.96163 2.59072 2.49034 1.44196C2.92774 0.48546 3.67756 0 4.73019 0C8.23896 0 11.7477 0 15.2517 0C16.2947 0 17.0397 0.475847 17.4771 1.41793C18.0155 2.5763 18.549 3.73949 19.0681 4.90747C19.1546 5.10454 19.2075 5.33526 19.2075 5.55155C19.2171 9.55539 19.2123 13.5592 19.2123 17.5631C19.2123 19.005 18.2269 19.9904 16.785 19.9904C14.5211 20 12.2572 19.9952 9.98854 19.9952ZM17.2464 4.60947C16.8475 3.73949 16.4629 2.90315 16.088 2.06681C15.9246 1.70632 15.6554 1.53809 15.2565 1.53809C11.7477 1.5429 8.23896 1.5429 4.73019 1.53809C4.33125 1.53809 4.06208 1.70632 3.89866 2.06681C3.54298 2.85508 3.18249 3.63855 2.822 4.42201C2.79796 4.47969 2.77874 4.53737 2.7547 4.60466C7.58527 4.60947 12.3966 4.60947 17.2464 4.60947ZM9.2195 14.535C9.12337 14.4629 9.05607 14.4196 8.99839 14.3715C8.22454 13.7515 7.44588 13.1315 6.67203 12.5162C6.2827 12.2086 5.82127 12.2471 5.5425 12.6027C5.26372 12.9536 5.33581 13.4102 5.72034 13.7227C6.96523 14.7176 8.20532 15.7174 9.45502 16.7075C9.82031 17.0007 10.1568 17.0007 10.5221 16.7075C11.767 15.7174 13.0119 14.7176 14.2567 13.7227C14.6461 13.4102 14.7134 12.9536 14.4394 12.6027C14.1558 12.2422 13.6896 12.2134 13.2906 12.5306C12.5072 13.1555 11.7285 13.7803 10.945 14.4052C10.8922 14.4484 10.8345 14.4773 10.7576 14.5302C10.7576 14.0159 10.7576 13.5448 10.7576 13.0738C10.7576 11.5597 10.7576 10.0457 10.7576 8.5316C10.7576 8.15189 10.5797 7.8683 10.2721 7.74814C9.74341 7.54146 9.2243 7.92117 9.2195 8.5268C9.2195 10.435 9.2195 12.3384 9.2195 14.2466C9.2195 14.3283 9.2195 14.41 9.2195 14.535Z"/>
</svg>
