<svg width="16" height="16" viewBox="0 0 16 16" fill="none" xmlns="http://www.w3.org/2000/svg">
<path d="M9.72188 11.3448C8.75938 11.3448 7.79688 11.3448 6.83125 11.3448C5.80938 11.3448 5.11875 10.8264 4.82812 9.84564C4.175 7.63748 3.525 5.43243 2.87188 3.22426C2.75625 2.82136 2.575 2.68706 2.15 2.68706C1.67188 2.68706 1.19062 2.68706 0.7125 2.68706C0.296875 2.68393 0 2.40284 0 2.01867C0 1.64076 0.290625 1.35341 0.696875 1.35029C1.29688 1.35029 1.89687 1.32218 2.49062 1.3784C3.27812 1.45648 3.82187 1.90624 4.09062 2.65583C4.23125 3.05248 4.34062 3.45851 4.45 3.86454C4.48438 3.99259 4.54063 4.0207 4.66563 4.0207C7.97813 4.01758 11.2875 4.0207 14.6 4.01446C15 4.01446 15.3531 4.11753 15.6313 4.41112C15.9938 4.79216 16.0812 5.23879 15.9219 5.73851C15.5219 6.9972 15.1281 8.25589 14.7312 9.51458C14.6656 9.71759 14.6156 9.92685 14.5312 10.1205C14.2094 10.8763 13.6344 11.3073 12.8125 11.3323C11.7812 11.3604 10.75 11.3386 9.71875 11.3386C9.72188 11.3417 9.72188 11.3448 9.72188 11.3448Z"/>
<path d="M7.33751 12.0164C8.07501 12.0164 8.66251 12.6067 8.66251 13.3469C8.66251 14.084 8.06876 14.6774 7.33751 14.6805C6.60001 14.6805 5.99689 14.0777 6.00001 13.3406C6.00314 12.6067 6.60001 12.0164 7.33751 12.0164Z"/>
<path d="M12.0031 14.6772C11.2718 14.6772 10.6718 14.0837 10.6656 13.3529C10.6593 12.6189 11.2656 12.013 12.0062 12.0161C12.7406 12.0192 13.3375 12.6158 13.3375 13.3466C13.3343 14.0775 12.7343 14.6772 12.0031 14.6772Z"/>
</svg>
