<svg width="16" height="16" viewBox="0 0 16 16" fill="none" xmlns="http://www.w3.org/2000/svg">
<g clip-path="url(#clip0_2876_12599)">
<path d="M8.02966 8.97168C8.02966 9.55906 8.02966 10.1277 8.02966 10.6932C8.02966 10.9432 8.03279 11.1931 8.02966 11.4431C8.02654 11.6524 8.0984 11.8242 8.29211 11.918C8.47958 12.0086 8.65142 11.9711 8.82013 11.8492C10.5136 10.637 12.207 9.42784 13.9004 8.2187C14.5096 7.78441 15.1189 7.347 15.7282 6.9127C16.0875 6.65651 16.0906 6.30657 15.7313 6.05037C13.4505 4.41944 11.1666 2.79163 8.88575 1.1607C8.81076 1.10759 8.73265 1.05135 8.64517 1.02011C8.33273 0.907627 8.02966 1.13883 8.02966 1.49501C8.02654 2.14176 8.02966 2.78539 8.02966 3.43213C8.02966 3.62585 8.02966 3.81643 8.02966 4.02264C7.79533 4.06014 7.56413 4.08826 7.33917 4.132C4.01795 4.80374 1.81213 6.75336 0.687348 9.93711C0.281178 11.0931 0.0905895 12.2929 0.0281019 13.5145C0.0124798 13.8364 0.00310802 14.1582 -1.71661e-05 14.4831C-0.0031414 14.758 0.181197 14.9611 0.437397 14.9799C0.671726 14.9986 0.874811 14.8268 0.934175 14.5737C1.5528 11.893 3.20873 10.1777 5.80197 9.33411C6.51746 9.09978 7.25794 8.9998 8.02966 8.97168Z" fill="#1FA956"/>
</g>
<defs>
<clipPath id="clip0_2876_12599">
<rect width="16" height="13.991" fill="white" transform="matrix(-1 0 0 1 16 0.991943)"/>
</clipPath>
</defs>
</svg>
