<svg width="17" height="16" viewBox="0 0 17 16" fill="none" xmlns="http://www.w3.org/2000/svg">
<path d="M8.47898 0.384033C8.76054 0.384033 8.933 0.510738 9.04915 0.74655C9.72843 2.13326 10.4183 3.51998 11.0975 4.90669C11.1539 5.01932 11.2172 5.06859 11.3439 5.08619C12.8573 5.30088 14.3708 5.52262 15.8842 5.74435C16.3206 5.8077 16.5564 6.03999 16.4895 6.39899C16.4649 6.53625 16.3734 6.68408 16.2713 6.78263C15.1662 7.87369 14.0505 8.95772 12.9348 10.0418C12.8538 10.1192 12.8327 10.1861 12.8503 10.3022C13.1213 11.8473 13.3817 13.3959 13.6457 14.9445C13.688 15.1874 13.6211 15.388 13.4205 15.5323C13.2198 15.6766 13.0087 15.666 12.7905 15.5499C11.4108 14.8249 10.0311 14.0998 8.65496 13.3713C8.54585 13.3114 8.46138 13.3079 8.34875 13.3678C6.98668 14.0893 5.6246 14.8073 4.25548 15.5147C4.12526 15.5816 3.96688 15.6273 3.82258 15.6203C3.50581 15.6027 3.29112 15.2965 3.34743 14.9656C3.58676 13.5402 3.81906 12.1113 4.08654 10.6894C4.16045 10.3022 4.0971 10.0488 3.79794 9.76723C2.74206 8.78174 1.72491 7.76107 0.690151 6.75447C0.517692 6.58905 0.454339 6.38843 0.517692 6.16318C0.588083 5.92737 0.760543 5.79714 1.00339 5.76195C1.20753 5.73379 1.40815 5.70212 1.61228 5.67396C2.9638 5.47686 4.31532 5.27977 5.66683 5.08971C5.79002 5.07211 5.84633 5.02284 5.89913 4.91725C6.58192 3.5235 7.27176 2.13326 7.95808 0.739511C8.07423 0.507218 8.24317 0.387553 8.47898 0.384033Z"/>
</svg>
