<svg width="16" height="16" viewBox="0 0 16 16" fill="none" xmlns="http://www.w3.org/2000/svg">
<path d="M10.1946 7.04727C9.96263 7.29705 9.76638 7.55753 9.52374 7.76092C9.19189 8.03567 8.67806 7.98215 8.34622 7.67171C8.00723 7.35771 7.6183 7.16145 7.15443 7.12934C6.57637 7.08652 6.07682 7.2685 5.6629 7.67885C4.58529 8.75289 3.50768 9.8305 2.43364 10.9081C1.69501 11.6503 1.68788 12.8207 2.41223 13.5557C3.14015 14.2944 4.32481 14.2979 5.07414 13.5593C5.76638 12.8742 6.45505 12.182 7.14015 11.4897C7.24363 11.3863 7.3257 11.3648 7.46486 11.4148C8.0786 11.636 8.71375 11.7003 9.3596 11.6467C9.43096 11.6396 9.50233 11.636 9.57369 11.6325C9.5844 11.6325 9.59153 11.6432 9.62722 11.661C9.52731 11.7609 9.43453 11.8573 9.34176 11.95C8.36763 12.9242 7.40063 13.909 6.41223 14.8724C5.32392 15.9322 4.02151 16.264 2.58351 15.7966C1.18119 15.3327 0.32124 14.3229 0.0643268 12.8528C-0.142631 11.661 0.164238 10.5798 1.00277 9.70918C2.13391 8.52809 3.29002 7.37198 4.47111 6.24085C6.08395 4.68866 8.81366 4.99553 10.0697 6.84031C10.1196 6.91524 10.166 6.99731 10.1946 7.04727Z"/>
<path d="M6.36585 4.30687C6.54426 4.1356 6.72267 3.96432 6.89752 3.78948C7.81456 2.87601 8.72446 1.94827 9.64863 1.0455C11.6361 -0.895624 15.051 -0.00713126 15.8217 2.65835C16.2249 4.05353 15.9252 5.31669 14.9082 6.36575C13.8056 7.50402 12.6816 8.63158 11.5398 9.7306C9.91268 11.2935 7.16514 10.9831 5.91625 9.12043C5.76282 8.89207 5.76282 8.89207 5.9555 8.70295C6.07682 8.58163 6.19814 8.46031 6.32303 8.33899C6.72267 7.95362 7.25434 7.95005 7.66826 8.32471C8.30341 8.8992 9.10626 9.02766 9.84489 8.65299C10.0233 8.56379 10.191 8.4389 10.3302 8.29974C11.4042 7.2364 12.4675 6.1695 13.5345 5.09902C14.2873 4.34612 14.2945 3.1579 13.5559 2.42284C12.8137 1.68422 11.6361 1.69849 10.8797 2.45496C10.191 3.14363 9.50234 3.83587 8.8101 4.52097C8.76371 4.56736 8.65666 4.61017 8.60314 4.58877C7.90733 4.34256 7.19011 4.27476 6.45862 4.35326C6.43722 4.35683 6.41224 4.35326 6.38726 4.35326C6.38726 4.33542 6.37655 4.32115 6.36585 4.30687Z"/>
</svg>
