<svg width="16" height="16" viewBox="0 0 16 16" fill="none" xmlns="http://www.w3.org/2000/svg">
<path d="M8.20145 0.00333482C4.95218 -0.106167 2.28381 2.49519 2.28381 5.71972C2.28381 9.37922 5.79567 12.035 7.76406 15.8544C7.864 16.0484 8.14316 16.0486 8.24344 15.8547C10.0241 12.418 13.0676 10.1135 13.6316 6.80266C14.2156 3.37656 11.6749 0.120438 8.20145 0.00333482ZM8.00347 8.71572C6.34885 8.71572 5.00747 7.37431 5.00747 5.71972C5.00747 4.06513 6.34888 2.72372 8.00347 2.72372C9.65809 2.72372 10.9995 4.06513 10.9995 5.71972C10.9995 7.37431 9.65809 8.71572 8.00347 8.71572Z"/>
</svg>
