<svg width="20" height="20" viewBox="0 0 20 20" fill="none" xmlns="http://www.w3.org/2000/svg">
<path d="M13.8165 13.3974C13.8165 11.8136 13.8121 10.2298 13.821 8.64607C13.821 8.46762 13.7585 8.36947 13.6247 8.2624C13.1741 7.89211 12.6789 7.54859 12.3086 7.10692C10.7026 5.17518 11.0728 2.36456 13.0893 0.84772C13.3883 0.624655 13.6872 0.40159 13.9816 0.178525C14.1913 0.0179182 14.4144 -0.0490013 14.6642 0.0759151C14.9185 0.205293 14.9899 0.423896 14.9899 0.687113C14.9899 1.47676 14.9854 2.26195 14.9899 3.0516C14.9943 3.4442 15.2218 3.71633 15.5609 3.76095C15.9847 3.81448 16.3149 3.51558 16.3238 3.06052C16.3327 2.56978 16.3238 2.07904 16.3283 1.58829C16.3283 1.2537 16.3193 0.9191 16.3327 0.584503C16.3506 0.111605 16.8279 -0.164995 17.2071 0.102683C17.8719 0.571119 18.5589 1.02171 19.0764 1.67306C20.5219 3.48881 20.2319 6.24589 18.4251 7.70473C18.1842 7.90103 17.9343 8.09287 17.68 8.27132C17.5417 8.36501 17.4971 8.47208 17.4971 8.63715C17.5016 11.769 17.5016 14.8963 17.5016 18.0282C17.5016 18.7018 17.2651 19.2595 16.7075 19.661C15.6323 20.4373 14.0396 19.7681 13.8478 18.4565C13.8255 18.2959 13.8165 18.1308 13.8165 17.9657C13.8165 16.4489 13.8165 14.9231 13.8165 13.3974Z"/>
<path d="M6.0271 9.32854C6.31262 9.37762 6.55353 9.41331 6.78552 9.46684C6.84351 9.48023 6.91936 9.56499 6.92382 9.61853C6.93274 10.5822 6.92828 11.5503 6.92828 12.5362C6.06279 12.5362 5.21514 12.5362 4.34073 12.5362C4.33627 12.4738 4.32734 12.4024 4.32734 12.331C4.32734 11.4521 4.3318 10.5777 4.32288 9.69883C4.32288 9.52484 4.38088 9.46238 4.54149 9.44008C4.75117 9.41331 4.96085 9.37316 5.17499 9.32408C4.54149 9.22593 3.96152 9.00733 3.44847 8.62366C2.5339 7.94108 2.02085 7.03097 1.9227 5.89334C1.91824 5.82642 1.95839 5.73274 2.00301 5.6792C3.06926 4.51034 4.38088 3.92145 5.9691 4.02852C7.30303 4.11775 8.39159 4.72002 9.27938 5.71043C9.324 5.7595 9.33738 5.86211 9.33292 5.9335C9.17231 7.68232 7.883 9.0341 6.13863 9.29731C6.11186 9.29731 6.09402 9.30624 6.0271 9.32854Z"/>
<path d="M7.53949 19.9912C6.25909 19.9912 4.99655 19.9912 3.71169 19.9912C3.70723 19.9242 3.69385 19.8618 3.69385 19.7993C3.69385 17.8453 3.69385 15.8912 3.69385 13.9372C3.69385 13.8078 3.69385 13.7141 3.87676 13.7141C5.059 13.723 6.23679 13.7186 7.41903 13.7186C7.45472 13.7186 7.49041 13.7275 7.53949 13.732C7.53949 15.8198 7.53949 17.8943 7.53949 19.9912Z"/>
<path d="M8.7174 19.9957C8.7174 19.8752 8.7174 19.786 8.7174 19.6968C8.7174 17.5643 8.7174 15.4318 8.7174 13.2993C8.7174 12.8085 8.59694 12.6568 8.1062 12.5319C8.1062 11.6709 8.1062 10.8099 8.1062 9.87744C8.46757 10.1184 8.81109 10.3102 9.10999 10.5556C10.4707 11.6664 11.1979 13.103 11.2202 14.8696C11.238 16.3552 11.2246 17.8409 11.2246 19.3265C11.2246 19.7726 10.9971 19.9957 10.551 19.9957C9.94872 20.0001 9.34644 19.9957 8.7174 19.9957Z"/>
<path d="M3.15406 9.91748C3.15406 10.7428 3.15406 11.5414 3.15406 12.3355C3.15406 12.4024 3.1496 12.4693 3.14513 12.5273C2.62316 12.679 2.52501 12.8129 2.52501 13.3571C2.52501 15.4763 2.52501 17.5954 2.52501 19.7145C2.52501 19.8037 2.52501 19.8885 2.52501 19.9911C1.8469 19.9911 1.19555 20.0045 0.544197 19.9866C0.24529 19.9777 0.0222248 19.7234 0.0222248 19.42C0.0177635 17.814 -0.0446946 16.2034 0.0445313 14.6063C0.156064 12.5363 1.20893 10.9971 3.01129 9.97994C3.04699 9.96209 3.07821 9.94871 3.15406 9.91748Z"/>
<path d="M9.34628 4.11783C6.85688 2.41362 4.39424 2.41362 1.93161 4.09999C1.56132 1.66858 3.01124 0.00897863 5.08128 0.0134399C5.7014 0.0134399 6.33937 -0.00886655 6.94611 0.107127C8.31572 0.365883 9.31059 1.61058 9.34182 3.00697C9.35075 3.3728 9.34628 3.74309 9.34628 4.11783Z"/>
</svg>
