<svg width="16" height="16" viewBox="0 0 16 16" fill="none" xmlns="http://www.w3.org/2000/svg">
<path d="M8.01611 0C8.01611 0.0928571 8.01611 0.164286 8.01611 0.232143C8.01611 1.68571 8.01611 3.13571 8.01611 4.58929C8.01611 5.27143 8.38397 5.77857 9.01254 5.94643C9.15897 5.98571 9.31968 5.99643 9.47326 5.99643C10.909 6 12.3411 6 13.7768 6C13.8483 6 13.9197 6 14.0197 6C14.0197 6.07143 14.0197 6.13214 14.0197 6.19643C14.0197 8.98214 14.0197 11.7679 14.0197 14.5536C14.0197 15.45 13.4661 16.0036 12.5697 16.0036C9.53397 16.0036 6.49826 16.0036 3.46254 16.0036C2.57683 16 2.01611 15.4464 2.01611 14.5643C2.01611 10.1893 2.01611 5.81429 2.01611 1.43929C2.01611 0.557143 2.57326 0 3.45897 0C4.91611 0 6.37326 0 7.83397 0C7.88754 0 7.93754 0 8.01611 0Z"/>
<path d="M9.35901 0.060791C10.8947 1.59651 12.4197 3.12151 13.9626 4.66793C13.8983 4.66793 13.8376 4.66793 13.7733 4.66793C12.3697 4.66793 10.9662 4.66436 9.56258 4.67151C9.39116 4.67151 9.34473 4.62865 9.34473 4.45365C9.35187 3.04293 9.3483 1.63579 9.3483 0.225077C9.3483 0.167934 9.35544 0.110791 9.35901 0.060791Z"/>
</svg>
