<svg width="20" height="20" viewBox="0 0 20 20" fill="none" xmlns="http://www.w3.org/2000/svg">
<path d="M9.98048 19.9962C8.62554 19.9962 7.2745 20.0001 5.91956 19.9962C3.10035 19.9884 0.769231 18.1414 0.144475 15.3886C0.0507614 14.9747 0.0117142 14.5374 0.00780945 14.1117C-0.00390472 11.3745 0 8.63342 0.00390472 5.89621C0.00780945 3.09262 1.88208 0.749783 4.61148 0.144551C5.03319 0.0508375 5.47442 0.0117902 5.90785 0.0117902C8.63725 -0.00382868 11.3627 7.60483e-05 14.0882 0.00398077C17.0793 0.0078855 19.508 2.11253 19.9414 5.07622C19.9805 5.35345 19.9922 5.63459 19.9922 5.91183C19.9961 8.63342 19.9961 11.3511 19.9922 14.0727C19.9883 16.9661 18.0398 19.3402 15.2011 19.8907C14.8262 19.9649 14.4397 19.9845 14.057 19.9884C12.6982 20.004 11.3393 19.9962 9.98048 19.9962ZM8.98868 8.9497C8.89496 8.9497 8.82468 8.9497 8.75439 8.9497C7.87583 8.9497 6.99727 8.9497 6.1187 8.9497C5.83366 8.9497 5.7048 9.0317 5.59937 9.30113C5.43147 9.74236 5.42757 10.1914 5.59547 10.6365C5.7009 10.9099 5.81804 10.988 6.11089 10.988C6.98946 10.988 7.86802 10.988 8.74658 10.988C8.82077 10.988 8.89887 10.988 8.98477 10.988C8.98477 11.0895 8.98477 11.1598 8.98477 11.2301C8.98477 12.1086 8.98477 12.9872 8.98477 13.8658C8.98477 14.1703 9.05896 14.3031 9.34401 14.3968C9.78524 14.5452 10.2343 14.5764 10.6794 14.3968C10.9449 14.2914 11.023 14.1703 11.023 13.8736C11.023 12.9872 11.023 12.1047 11.023 11.2183C11.023 11.1481 11.023 11.0778 11.023 10.9841C11.1207 10.9841 11.1988 10.9841 11.2729 10.9841C12.1515 10.9841 13.0301 10.9802 13.9086 10.988C14.1429 10.9919 14.2913 10.8904 14.3772 10.6834C14.5646 10.2383 14.5685 9.78532 14.4084 9.33237C14.303 9.03561 14.1741 8.9497 13.854 8.9497C12.9871 8.9497 12.1242 8.9497 11.2573 8.9497C11.187 8.9497 11.1167 8.9497 11.023 8.9497C11.023 8.8599 11.023 8.78961 11.023 8.71933C11.023 7.85248 11.023 6.98953 11.023 6.12268C11.023 5.81031 10.941 5.67755 10.6482 5.58774C10.2382 5.46279 9.82038 5.41983 9.40258 5.57212C9.07067 5.69707 8.98868 5.8064 8.98868 6.16173C8.98868 7.08325 8.98868 8.00086 8.98868 8.9497Z"/>
</svg>
