<svg width="17" height="16" viewBox="0 0 17 16" fill="none" xmlns="http://www.w3.org/2000/svg">
<path d="M11.9298 15.2363C9.43395 15.247 7.37013 13.1903 7.35942 10.6873C7.3487 8.16643 9.39825 6.1026 11.9191 6.09546C14.4364 6.09189 16.4824 8.12715 16.5002 10.648C16.5181 13.1617 14.4578 15.2291 11.9298 15.2363Z"/>
<path d="M5.68497 5.335C4.55308 5.32428 3.30693 5.14575 2.12148 4.63872C1.69658 4.45305 1.30381 4.22453 0.961028 3.91031C0.364733 3.36044 0.364733 2.72486 0.97174 2.17499C1.39307 1.7965 1.88582 1.53941 2.41428 1.34303C3.80682 0.821718 5.24579 0.696745 6.71689 0.800294C7.67382 0.868136 8.60218 1.05738 9.4877 1.4323C10.0019 1.64653 10.4875 1.91433 10.8588 2.34281C11.2659 2.81056 11.2694 3.26403 10.8731 3.73892C10.5196 4.16026 10.0554 4.42806 9.55911 4.63515C8.39508 5.11362 7.18107 5.33857 5.68497 5.335Z"/>
<path d="M0.503721 5.50293C2.59611 6.74908 4.85275 6.9776 7.22008 6.78836C7.11296 6.93118 7.00941 7.05258 6.93086 7.1847C6.7309 7.52748 6.54166 7.8774 6.35242 8.22732C6.30957 8.30945 6.27386 8.37015 6.1596 8.37372C4.75991 8.39871 3.39593 8.22732 2.09979 7.66673C1.62847 7.46321 1.18928 7.20612 0.83579 6.82049C0.603699 6.56698 0.485868 6.27419 0.503721 5.92783C0.510862 5.79572 0.503721 5.66004 0.503721 5.50293Z"/>
<path d="M7.0667 14.4152C6.69179 14.433 6.30616 14.4616 5.92053 14.4651C4.64224 14.4794 3.39609 14.3045 2.20707 13.8117C1.70361 13.6046 1.23229 13.3404 0.853803 12.9405C0.603859 12.6763 0.482457 12.3656 0.503881 12.0014C0.511022 11.8764 0.503881 11.7515 0.503881 11.6086C0.550299 11.6265 0.589576 11.6336 0.621712 11.6551C1.73932 12.3549 2.97476 12.6977 4.26733 12.8477C4.88505 12.9191 5.51348 12.9119 6.13477 12.9476C6.19547 12.9512 6.28473 12.9762 6.30973 13.019C6.55967 13.4725 6.80605 13.9296 7.0667 14.4152Z"/>
<path d="M5.85617 9.90191C5.85617 10.4197 5.85617 10.9124 5.85617 11.4301C5.53481 11.4159 5.20988 11.4087 4.88495 11.3802C3.81019 11.2909 2.76043 11.0731 1.79993 10.5661C1.45715 10.3839 1.1465 10.134 0.853711 9.88049C0.585913 9.6484 0.478794 9.32347 0.500218 8.96284C0.50736 8.8343 0.500218 8.70218 0.500218 8.5415C2.15699 9.56628 3.97087 9.88406 5.85617 9.90191Z"/>
</svg>
