<svg width="16" height="16" viewBox="0 0 16 16" fill="none" xmlns="http://www.w3.org/2000/svg">
<path d="M8 16C5.98846 16 3.97308 16 1.96154 16C0.780769 16 0 15.2192 0 14.0385C0 10.0115 0 5.98846 0 1.96154C0 0.780769 0.780769 0 1.96154 0C5.98846 0 10.0115 0 14.0385 0C15.2192 0 16 0.780769 16 1.96154C16 5.98846 16 10.0115 16 14.0385C16 15.2192 15.2192 16 14.0385 16C12.0269 16 10.0154 16 8 16ZM9.84615 3.69231C8.83462 3.69231 7.82308 3.69231 6.80769 3.69231C6.51538 3.69231 6.29615 3.83462 6.2 4.07692C6.03077 4.49615 6.33846 4.91923 6.81923 4.91923C8.83077 4.91923 10.8423 4.91923 12.8538 4.91923C13.2577 4.91923 13.5385 4.66154 13.5346 4.3C13.5308 3.93846 13.25 3.69231 12.8423 3.69231C11.8462 3.69231 10.8462 3.69231 9.84615 3.69231ZM9.84231 7.38462C8.83077 7.38462 7.81923 7.38462 6.80385 7.38462C6.51154 7.38462 6.29231 7.52692 6.19615 7.76923C6.02692 8.19231 6.33462 8.61154 6.81923 8.61154C8.82308 8.61154 10.8308 8.61154 12.8346 8.61154C13.2577 8.61154 13.5385 8.35769 13.5346 7.98846C13.5308 7.62692 13.25 7.38077 12.8385 7.38077C11.8423 7.38462 10.8423 7.38462 9.84231 7.38462ZM9.84615 11.0769C8.83462 11.0769 7.82308 11.0769 6.80769 11.0769C6.51538 11.0769 6.29615 11.2192 6.19615 11.4615C6.02692 11.8808 6.33462 12.3038 6.81538 12.3038C8.81923 12.3038 10.8269 12.3038 12.8308 12.3038C13.2538 12.3038 13.5346 12.0538 13.5346 11.6846C13.5308 11.3154 13.25 11.0769 12.8231 11.0769C11.8308 11.0769 10.8385 11.0769 9.84615 11.0769ZM3.7 5.53846C3.9 5.53846 4.09615 5.54231 4.29615 5.53846C4.65769 5.53077 4.91923 5.28077 4.92308 4.92308C4.93077 4.51154 4.93077 4.10385 4.92308 3.69231C4.91923 3.34231 4.66154 3.08462 4.31154 3.08077C3.9 3.07308 3.49231 3.07308 3.08077 3.08077C2.72308 3.08462 2.46923 3.34231 2.46154 3.70385C2.45769 4.10769 2.45769 4.51154 2.46154 4.91538C2.46538 5.27308 2.72308 5.53077 3.08077 5.53846C3.28846 5.54231 3.49231 5.53846 3.7 5.53846ZM3.70769 6.76923C3.50385 6.76923 3.29615 6.76538 3.09231 6.76923C2.72308 6.77692 2.46538 7.03077 2.46154 7.4C2.45769 7.79615 2.45769 8.19231 2.46154 8.59231C2.46538 8.96154 2.71923 9.22308 3.08846 9.22692C3.49231 9.23077 3.89615 9.23077 4.3 9.22692C4.65769 9.22308 4.91538 8.96538 4.91923 8.60385C4.92308 8.2 4.92308 7.79615 4.91923 7.39231C4.91538 7.02692 4.65385 6.77308 4.28462 6.76538C4.09231 6.76923 3.9 6.76923 3.70769 6.76923ZM3.67692 12.9231C3.88077 12.9231 4.08846 12.9269 4.29231 12.9231C4.66154 12.9154 4.91923 12.6615 4.92308 12.2923C4.92692 11.8962 4.92692 11.5 4.92308 11.1C4.91923 10.7269 4.66538 10.4692 4.29615 10.4654C3.89231 10.4615 3.48846 10.4615 3.08462 10.4654C2.72308 10.4692 2.46923 10.7269 2.46538 11.0846C2.46154 11.4885 2.46154 11.8923 2.46538 12.2962C2.46923 12.6615 2.73077 12.9154 3.1 12.9231C3.29231 12.9269 3.48462 12.9231 3.67692 12.9231Z"/>
</svg>
