<svg width="15" height="16" viewBox="0 0 15 16" fill="none" xmlns="http://www.w3.org/2000/svg">
<path d="M7.48983 16C5.57313 16 3.65302 16.0031 1.73632 16C0.857968 16 0.160056 15.4625 0.0272823 14.6719C-0.0101666 14.4563 0.01026 14.2344 0.00685559 14.0156C-0.0101666 13.3063 0.0374956 12.6 0.231549 11.9094C0.589016 10.6344 1.29374 9.54376 2.31507 8.61876C2.97553 8.01876 3.83686 7.98126 4.61307 8.39064C6.53318 9.40314 8.48393 9.38439 10.4211 8.39064C10.6355 8.28126 10.867 8.17814 11.1054 8.13126C11.6637 8.02189 12.1607 8.17501 12.5795 8.52814C13.4783 9.28439 14.1319 10.1906 14.5507 11.2438C14.8605 12.025 15.0137 12.8313 15 13.6625C14.9966 13.9969 15.0273 14.3344 14.9796 14.6594C14.8639 15.4563 14.1557 16 13.2672 16C11.3335 16.0031 9.41335 16 7.48983 16Z"/>
<path d="M7.50694 7.74063C5.19532 7.75001 3.29224 6.01251 3.28202 3.88438C3.27181 1.75626 5.15447 0.00938258 7.4729 7.58388e-06C9.80495 -0.00936742 11.7046 1.71251 11.7148 3.85313C11.7285 5.98438 9.83899 7.73126 7.50694 7.74063Z"/>
</svg>
