<svg width="20" height="20" viewBox="0 0 20 20" fill="none" xmlns="http://www.w3.org/2000/svg">
<path d="M20 10.0079C19.9922 15.5039 15.4688 20.0196 9.98439 20C4.4922 19.9844 -0.00780234 15.4766 1.01572e-05 9.99223C0.00782266 4.49613 4.53126 -0.0155845 10.0156 4.04626e-05C15.5117 0.0156655 20.0078 4.52348 20 10.0079ZM4.46095 10.1602C5.90235 11.6055 7.35548 13.0586 8.81642 14.5196C11.2188 12.336 13.6328 10.1407 16.0586 7.93363C15.5274 7.3477 15.0078 6.77738 14.4805 6.20317C12.6016 7.9102 10.7344 9.60942 8.85157 11.3164C7.91017 10.375 6.98439 9.45317 6.07423 8.5391C5.53126 9.09379 4.98439 9.64067 4.46095 10.1602Z"/>
</svg>
