<svg width="20" height="20" viewBox="0 0 20 20" fill="none" xmlns="http://www.w3.org/2000/svg">
<path d="M10 20C7.48558 20 4.96635 20 2.45192 20C0.975962 20 0 19.024 0 17.5481C0 12.5144 0 7.48558 0 2.45192C0 0.975962 0.975962 0 2.45192 0C7.48558 0 12.5144 0 17.5481 0C19.024 0 20 0.975962 20 2.45192C20 7.48558 20 12.5144 20 17.5481C20 19.024 19.024 20 17.5481 20C15.0337 20 12.5192 20 10 20ZM12.3077 4.61538C11.0433 4.61538 9.77885 4.61538 8.50962 4.61538C8.14423 4.61538 7.87019 4.79327 7.75 5.09615C7.53846 5.62019 7.92308 6.14904 8.52404 6.14904C11.0385 6.14904 13.5529 6.14904 16.0673 6.14904C16.5721 6.14904 16.9231 5.82692 16.9183 5.375C16.9135 4.92308 16.5625 4.61538 16.0529 4.61538C14.8077 4.61538 13.5577 4.61538 12.3077 4.61538ZM12.3029 9.23077C11.0385 9.23077 9.77404 9.23077 8.50481 9.23077C8.13942 9.23077 7.86539 9.40865 7.74519 9.71154C7.53365 10.2404 7.91827 10.7644 8.52404 10.7644C11.0288 10.7644 13.5385 10.7644 16.0433 10.7644C16.5721 10.7644 16.9231 10.4471 16.9183 9.98558C16.9135 9.53365 16.5625 9.22596 16.0481 9.22596C14.8029 9.23077 13.5529 9.23077 12.3029 9.23077ZM12.3077 13.8462C11.0433 13.8462 9.77885 13.8462 8.50962 13.8462C8.14423 13.8462 7.87019 14.024 7.74519 14.3269C7.53365 14.851 7.91827 15.3798 8.51923 15.3798C11.024 15.3798 13.5337 15.3798 16.0385 15.3798C16.5673 15.3798 16.9183 15.0673 16.9183 14.6058C16.9135 14.1442 16.5625 13.8462 16.0288 13.8462C14.7885 13.8462 13.5481 13.8462 12.3077 13.8462ZM4.625 6.92308C4.875 6.92308 5.12019 6.92788 5.37019 6.92308C5.82212 6.91346 6.14904 6.60096 6.15385 6.15385C6.16346 5.63942 6.16346 5.12981 6.15385 4.61538C6.14904 4.17788 5.82692 3.85577 5.38942 3.85096C4.875 3.84135 4.36538 3.84135 3.85096 3.85096C3.40385 3.85577 3.08654 4.17789 3.07692 4.62981C3.07212 5.13462 3.07212 5.63942 3.07692 6.14423C3.08173 6.59135 3.40385 6.91346 3.85096 6.92308C4.11058 6.92788 4.36538 6.92308 4.625 6.92308ZM4.63462 8.46154C4.37981 8.46154 4.12019 8.45673 3.86538 8.46154C3.40385 8.47115 3.08173 8.78846 3.07692 9.25C3.07212 9.74519 3.07212 10.2404 3.07692 10.7404C3.08173 11.2019 3.39904 11.5288 3.86058 11.5337C4.36539 11.5385 4.87019 11.5385 5.375 11.5337C5.82212 11.5288 6.14423 11.2067 6.14904 10.7548C6.15385 10.25 6.15385 9.74519 6.14904 9.24039C6.14423 8.78365 5.81731 8.46635 5.35577 8.45673C5.11538 8.46154 4.875 8.46154 4.63462 8.46154ZM4.59615 16.1538C4.85096 16.1538 5.11058 16.1587 5.36538 16.1538C5.82692 16.1442 6.14904 15.8269 6.15385 15.3654C6.15865 14.8702 6.15865 14.375 6.15385 13.875C6.14904 13.4087 5.83173 13.0865 5.37019 13.0817C4.86538 13.0769 4.36058 13.0769 3.85577 13.0817C3.40385 13.0865 3.08654 13.4087 3.08173 13.8558C3.07692 14.3606 3.07692 14.8654 3.08173 15.3702C3.08654 15.8269 3.41346 16.1442 3.875 16.1538C4.11538 16.1587 4.35577 16.1538 4.59615 16.1538Z"/>
</svg>
