<svg width="20" height="20" viewBox="0 0 20 20" fill="none" xmlns="http://www.w3.org/2000/svg">
<path d="M8.14846 0C8.14846 0.101562 8.14846 0.175781 8.14846 0.253906C8.14846 1.10547 8.14846 1.95703 8.14846 2.8125C8.14846 3.29688 8.36721 3.51562 8.84768 3.51562C9.62893 3.51562 10.4102 3.51562 11.1914 3.51562C11.6211 3.51562 11.8516 3.28516 11.8555 2.85156C11.8594 1.98437 11.8555 1.12109 11.8555 0.253906C11.8555 0.175781 11.8555 0.101563 11.8555 0.0078125C11.9336 0.00390625 11.9961 -0.00390625 12.0586 -0.00390625C12.9102 -0.00390625 13.7617 -0.00390625 14.6172 -0.00390625C15.0625 -0.00390625 15.293 0.222656 15.293 0.667969C15.293 3.36328 15.293 6.05469 15.293 8.75C15.293 9.18359 15.0586 9.41016 14.6289 9.41406C11.543 9.41406 8.46096 9.41406 5.37503 9.41406C4.94534 9.41406 4.70706 9.18359 4.70706 8.75391C4.70706 6.05469 4.70315 3.35156 4.70706 0.652344C4.70706 0.230469 4.94534 0 5.36331 0C6.28128 0 7.19534 0 8.14846 0ZM12.1836 7.85156C12.3711 7.85156 12.5625 7.85547 12.75 7.85156C13.086 7.84375 13.3321 7.59375 13.336 7.26953C13.336 6.94922 13.0899 6.69141 12.7578 6.68359C12.3672 6.67578 11.9766 6.67578 11.586 6.68359C11.25 6.6875 11.0039 6.94141 11 7.26562C11 7.58594 11.2461 7.84375 11.5782 7.85156C11.7813 7.85547 11.9844 7.85156 12.1836 7.85156Z"/>
<path d="M6.5625 10.5938C7.52734 10.5938 8.46094 10.5938 9.40625 10.5938C9.40625 13.7266 9.40625 16.8477 9.40625 20C9.33984 20 9.26953 20 9.20312 20C6.36328 20 3.52734 20 0.6875 20C0.226562 20 0 19.7773 0 19.3203C0 16.6328 0 13.9453 0 11.2578C0 10.8164 0.230469 10.5859 0.675781 10.5859C1.39062 10.5859 2.10547 10.5859 2.85156 10.5859C2.85156 10.6641 2.85156 10.7305 2.85156 10.8008C2.85156 11.6797 2.85156 12.5586 2.85156 13.4375C2.85156 13.8672 3.08594 14.1016 3.51562 14.1016C4.30859 14.1016 5.10547 14.1016 5.89844 14.1016C6.32812 14.1016 6.5625 13.8672 6.5625 13.4375C6.5625 12.5664 6.5625 11.6914 6.5625 10.8203C6.5625 10.75 6.5625 10.6797 6.5625 10.5938ZM6.87109 18.4375C7.06641 18.4375 7.26172 18.4414 7.45703 18.4375C7.79297 18.4297 8.04297 18.1797 8.04688 17.8594C8.05078 17.5313 7.79297 17.2734 7.44922 17.2695C7.06641 17.2656 6.67969 17.2656 6.29688 17.2695C5.96484 17.2734 5.71094 17.5312 5.70703 17.8477C5.70312 18.1758 5.96094 18.4297 6.30469 18.4375C6.49219 18.4414 6.68359 18.4375 6.87109 18.4375Z"/>
<path d="M10.5898 20C10.5898 16.8516 10.5898 13.7344 10.5898 10.6016C11.5313 10.6016 12.4727 10.6016 13.4375 10.6016C13.4375 10.6641 13.4375 10.7344 13.4375 10.8008C13.4375 11.6719 13.4375 12.5469 13.4375 13.418C13.4375 13.875 13.6641 14.0977 14.1211 14.1016C14.9102 14.1016 15.6953 14.1016 16.4844 14.1016C16.9141 14.1016 17.1445 13.8672 17.1445 13.4375C17.1445 12.5664 17.1445 11.6914 17.1445 10.8203C17.1445 10.75 17.1445 10.6797 17.1445 10.5859C17.3867 10.5859 17.6133 10.5859 17.8359 10.5859C18.3438 10.5859 18.8516 10.5859 19.3594 10.5859C19.75 10.5859 19.9961 10.8281 19.9961 11.2188C19.9961 13.9336 19.9961 16.6484 19.9961 19.3633C19.9961 19.7578 19.7578 20 19.3672 20C16.4883 20 13.6133 20 10.7344 20C10.6953 20 10.6523 20 10.5898 20ZM17.4453 18.4375C17.6484 18.4375 17.8477 18.4414 18.0508 18.4375C18.3828 18.4258 18.6328 18.168 18.6328 17.8477C18.6289 17.5273 18.3789 17.2734 18.043 17.2695C17.6602 17.2617 17.2734 17.2656 16.8906 17.2695C16.5469 17.2734 16.2891 17.5313 16.2891 17.8594C16.293 18.1836 16.5508 18.4336 16.8984 18.4414C17.082 18.4414 17.2656 18.4375 17.4453 18.4375Z"/>
<path d="M9.32812 0.0078125C9.78516 0.0078125 10.2227 0.0078125 10.6719 0.0078125C10.6719 0.785156 10.6719 1.55859 10.6719 2.33594C10.2227 2.33594 9.78125 2.33594 9.32812 2.33594C9.32813 1.5625 9.32812 0.796875 9.32812 0.0078125Z"/>
<path d="M5.38281 10.6016C5.38281 11.375 5.38281 12.1406 5.38281 12.918C4.93359 12.918 4.48828 12.918 4.03125 12.918C4.03125 12.1484 4.03125 11.3828 4.03125 10.6016C4.47266 10.6016 4.91797 10.6016 5.38281 10.6016Z"/>
<path d="M14.625 10.5938C15.0781 10.5938 15.5195 10.5938 15.9688 10.5938C15.9688 11.3672 15.9688 12.1328 15.9688 12.9141C15.5273 12.9141 15.082 12.9141 14.625 12.9141C14.625 12.1523 14.625 11.3828 14.625 10.5938Z"/>
</svg>
