<svg xmlns="http://www.w3.org/2000/svg" xmlns:xlink="http://www.w3.org/1999/xlink"><symbol id="apply" viewBox="0 0 20 20">
<path d="M1.99989 9.93658C1.99989 7.56847 1.9952 5.20036 1.99989 2.83225C1.99989 1.53799 2.83459 0.417239 4.04444 0.0889862C4.26014 0.0327142 4.48992 -0.00011115 4.71501 -0.00011115C6.76425 -0.00480048 8.8088 0.00457818 10.858 -0.00011115C11.7631 -0.00480048 12.5087 0.318763 13.1371 0.965891C14.4501 2.3258 15.7725 3.68101 17.0995 5.02685C17.7279 5.6646 18.0233 6.41021 18.0233 7.30118C18.014 10.5509 18.0233 13.8053 18.0186 17.055C18.0186 18.5462 17.062 19.6951 15.6083 19.9624C15.4254 19.9952 15.2332 19.9999 15.0503 19.9999C11.6974 19.9999 8.34455 20.0046 4.99168 19.9999C3.24725 19.9999 2.00927 18.7619 2.00927 17.0175C1.99989 14.6587 1.99989 12.3 1.99989 9.93658ZM9.99051 12.2062C8.95886 12.2062 7.9272 12.2015 6.90024 12.2109C6.40786 12.2156 6.12181 12.5251 6.11712 13.0128C6.11712 13.4723 6.44068 13.8381 6.89086 13.8428C8.96823 13.8522 11.0456 13.8475 13.123 13.8428C13.5685 13.8428 13.9014 13.4864 13.9061 13.0456C13.9108 12.5532 13.5638 12.2109 13.0386 12.2109C12.021 12.2015 11.0034 12.2062 9.99051 12.2062ZM8.48054 8.10774C7.95534 8.10774 7.43482 8.10306 6.90962 8.11243C6.48758 8.12181 6.16401 8.40786 6.11712 8.80177C6.05147 9.34104 6.40786 9.73963 6.98934 9.74432C7.97879 9.7537 8.97292 9.74901 9.96237 9.74432C10.0468 9.74432 10.1359 9.73494 10.2203 9.71618C10.5345 9.65991 10.7502 9.43952 10.8065 9.12533C10.9049 8.53447 10.5579 8.11243 9.95768 8.10774C9.4653 8.10306 8.97292 8.10774 8.48054 8.10774Z"/>
</symbol><symbol id="archive" viewBox="0 0 20 20">
<path d="M9.98854 19.9952C7.72947 19.9952 5.4704 19.9952 3.21132 19.9952C1.74052 19.9952 0.759991 19.0195 0.759991 17.5487C0.759991 13.5592 0.755184 9.57462 0.764797 5.5852C0.764797 5.35448 0.817669 5.10454 0.9138 4.89305C1.4281 3.73468 1.96163 2.59072 2.49034 1.44196C2.92774 0.48546 3.67756 0 4.73019 0C8.23896 0 11.7477 0 15.2517 0C16.2947 0 17.0397 0.475847 17.4771 1.41793C18.0155 2.5763 18.549 3.73949 19.0681 4.90747C19.1546 5.10454 19.2075 5.33526 19.2075 5.55155C19.2171 9.55539 19.2123 13.5592 19.2123 17.5631C19.2123 19.005 18.2269 19.9904 16.785 19.9904C14.5211 20 12.2572 19.9952 9.98854 19.9952ZM17.2464 4.60947C16.8475 3.73949 16.4629 2.90315 16.088 2.06681C15.9246 1.70632 15.6554 1.53809 15.2565 1.53809C11.7477 1.5429 8.23896 1.5429 4.73019 1.53809C4.33125 1.53809 4.06208 1.70632 3.89866 2.06681C3.54298 2.85508 3.18249 3.63855 2.822 4.42201C2.79796 4.47969 2.77874 4.53737 2.7547 4.60466C7.58527 4.60947 12.3966 4.60947 17.2464 4.60947ZM9.2195 14.535C9.12337 14.4629 9.05607 14.4196 8.99839 14.3715C8.22454 13.7515 7.44588 13.1315 6.67203 12.5162C6.2827 12.2086 5.82127 12.2471 5.5425 12.6027C5.26372 12.9536 5.33581 13.4102 5.72034 13.7227C6.96523 14.7176 8.20532 15.7174 9.45502 16.7075C9.82031 17.0007 10.1568 17.0007 10.5221 16.7075C11.767 15.7174 13.0119 14.7176 14.2567 13.7227C14.6461 13.4102 14.7134 12.9536 14.4394 12.6027C14.1558 12.2422 13.6896 12.2134 13.2906 12.5306C12.5072 13.1555 11.7285 13.7803 10.945 14.4052C10.8922 14.4484 10.8345 14.4773 10.7576 14.5302C10.7576 14.0159 10.7576 13.5448 10.7576 13.0738C10.7576 11.5597 10.7576 10.0457 10.7576 8.5316C10.7576 8.15189 10.5797 7.8683 10.2721 7.74814C9.74341 7.54146 9.2243 7.92117 9.2195 8.5268C9.2195 10.435 9.2195 12.3384 9.2195 14.2466C9.2195 14.3283 9.2195 14.41 9.2195 14.535Z"/>
</symbol><symbol id="arrow-down" viewBox="0 0 10 10">
<path d="M4.99997 7.85018C4.82075 7.85018 4.64155 7.78175 4.50492 7.64518L0.205141 3.34536C-0.0683805 3.07184 -0.0683805 2.62837 0.205141 2.35496C0.478553 2.08155 0.921933 2.08155 1.19548 2.35496L4.99997 6.15968L8.80449 2.35509C9.07801 2.08168 9.52135 2.08168 9.79474 2.35509C10.0684 2.6285 10.0684 3.07197 9.79474 3.34549L5.49503 7.64531C5.35832 7.78191 5.17913 7.85018 4.99997 7.85018Z"/>
</symbol><symbol id="arrow-left" viewBox="0 0 12 14">
<path d="M1.15966 6.99996C1.15966 6.74905 1.24178 6.49818 1.40567 6.30688L6.56545 0.287198C6.89367 -0.0957326 7.42584 -0.0957326 7.75393 0.287198C8.08202 0.669973 8.08202 1.29071 7.75393 1.67367L3.18827 6.99996L7.75377 12.3263C8.08186 12.7092 8.08186 13.3299 7.75377 13.7126C7.42568 14.0957 6.89352 14.0957 6.56529 13.7126L1.40551 7.69304C1.24159 7.50165 1.15966 7.25078 1.15966 6.99996Z"/>
</symbol><symbol id="arrow-right" viewBox="0 0 12 14">
<path d="M10.8403 7.00004C10.8403 7.25095 10.7582 7.50182 10.5943 7.69312L5.43455 13.7128C5.10633 14.0957 4.57416 14.0957 4.24607 13.7128C3.91798 13.33 3.91798 12.7093 4.24607 12.3263L8.81173 7.00004L4.24623 1.67371C3.91814 1.29078 3.91814 0.670114 4.24623 0.28737C4.57432 -0.095747 5.10648 -0.0957471 5.43471 0.28737L10.5945 6.30696C10.7584 6.49835 10.8403 6.74922 10.8403 7.00004Z"/>
</symbol><symbol id="cart" viewBox="0 0 16 16">
<path d="M9.72188 11.3448C8.75938 11.3448 7.79688 11.3448 6.83125 11.3448C5.80938 11.3448 5.11875 10.8264 4.82812 9.84564C4.175 7.63748 3.525 5.43243 2.87188 3.22426C2.75625 2.82136 2.575 2.68706 2.15 2.68706C1.67188 2.68706 1.19062 2.68706 0.7125 2.68706C0.296875 2.68393 0 2.40284 0 2.01867C0 1.64076 0.290625 1.35341 0.696875 1.35029C1.29688 1.35029 1.89687 1.32218 2.49062 1.3784C3.27812 1.45648 3.82187 1.90624 4.09062 2.65583C4.23125 3.05248 4.34062 3.45851 4.45 3.86454C4.48438 3.99259 4.54063 4.0207 4.66563 4.0207C7.97813 4.01758 11.2875 4.0207 14.6 4.01446C15 4.01446 15.3531 4.11753 15.6313 4.41112C15.9938 4.79216 16.0812 5.23879 15.9219 5.73851C15.5219 6.9972 15.1281 8.25589 14.7312 9.51458C14.6656 9.71759 14.6156 9.92685 14.5312 10.1205C14.2094 10.8763 13.6344 11.3073 12.8125 11.3323C11.7812 11.3604 10.75 11.3386 9.71875 11.3386C9.72188 11.3417 9.72188 11.3448 9.72188 11.3448Z"/>
<path d="M7.33751 12.0164C8.07501 12.0164 8.66251 12.6067 8.66251 13.3469C8.66251 14.084 8.06876 14.6774 7.33751 14.6805C6.60001 14.6805 5.99689 14.0777 6.00001 13.3406C6.00314 12.6067 6.60001 12.0164 7.33751 12.0164Z"/>
<path d="M12.0031 14.6772C11.2718 14.6772 10.6718 14.0837 10.6656 13.3529C10.6593 12.6189 11.2656 12.013 12.0062 12.0161C12.7406 12.0192 13.3375 12.6158 13.3375 13.3466C13.3343 14.0775 12.7343 14.6772 12.0031 14.6772Z"/>
</symbol><symbol id="close" viewBox="0 0 12 12">
<rect x="1.50049" y="0.000488281" width="14.8487" height="2.12125" transform="rotate(45 1.50049 0.000488281)"/>
<rect x="11.9995" y="1.5" width="14.8487" height="2.12125" transform="rotate(135 11.9995 1.5)"/>
</symbol><symbol id="download" viewBox="0 0 16 16">
<path d="M5.02771 5.63734C5.02771 5.53882 5.02771 5.46584 5.02771 5.39287C5.02771 3.88591 5.02771 2.37531 5.02771 0.868351C5.02771 0.394006 5.30137 0.0802093 5.77572 0.0145309C5.86694 0.00358444 5.95816 -6.43617e-05 6.04938 -6.43617e-05C7.352 -6.43617e-05 8.65098 -0.00371316 9.9536 0.00358444C10.1324 0.00358444 10.3221 0.0327749 10.4863 0.0984533C10.8074 0.226161 10.9789 0.470631 10.9789 0.831863C10.9753 2.35341 10.9753 3.87132 10.9753 5.39287C10.9753 5.46584 10.9753 5.53882 10.9753 5.63734C11.0482 5.63734 11.1139 5.63734 11.1759 5.63734C11.7415 5.63734 12.3071 5.63369 12.8726 5.64099C13.0113 5.64099 13.1536 5.65558 13.285 5.69207C13.6827 5.80518 13.8761 6.16276 13.7192 6.54589C13.6425 6.72833 13.5185 6.91442 13.3689 7.04577C11.8692 8.37029 10.3623 9.68386 8.85896 11.0047C8.51962 11.3003 8.14379 11.4499 7.70229 11.3185C7.5235 11.2638 7.34106 11.1653 7.19875 11.0412C5.66626 9.7094 4.13741 8.37394 2.61221 7.03118C2.4845 6.91807 2.37139 6.76847 2.30206 6.61157C2.10138 6.17736 2.3203 5.76869 2.78735 5.67018C2.91871 5.64463 3.05371 5.63734 3.18507 5.63734C3.79442 5.63734 4.40012 5.63734 5.02771 5.63734Z"/>
<path d="M7.98325 15.9998C6.18804 15.9998 4.39648 15.9998 2.60127 15.9998C2.33125 15.9998 2.08314 15.9414 1.8715 15.7663C1.64528 15.5802 1.53946 15.3357 1.53946 15.0475C1.53946 14.6899 1.53581 14.3287 1.53946 13.9711C1.54676 13.4603 1.8934 13.0881 2.40058 13.0333C2.4918 13.0224 2.58302 13.0224 2.67424 13.0224C6.22453 13.0224 9.77481 13.0187 13.3251 13.026C13.5148 13.026 13.7192 13.0516 13.8943 13.1209C14.2519 13.2669 14.4453 13.5515 14.4489 13.9455C14.4526 14.2922 14.4343 14.6388 14.4526 14.9855C14.4891 15.6057 13.9855 16.0071 13.4346 15.9998C12.7887 15.9925 12.1465 15.9998 11.5007 15.9998C10.3294 15.9998 9.15451 15.9998 7.98325 15.9998Z"/>
</symbol><symbol id="export" viewBox="0 0 16 16">
<path d="M8.02966 8.97168C8.02966 9.55906 8.02966 10.1277 8.02966 10.6932C8.02966 10.9432 8.03279 11.1931 8.02966 11.4431C8.02654 11.6524 8.0984 11.8242 8.29211 11.918C8.47958 12.0086 8.65142 11.9711 8.82013 11.8492C10.5136 10.637 12.207 9.42784 13.9004 8.2187C14.5096 7.78441 15.1189 7.347 15.7282 6.9127C16.0875 6.65651 16.0906 6.30657 15.7313 6.05037C13.4505 4.41944 11.1666 2.79163 8.88575 1.1607C8.81076 1.10759 8.73265 1.05135 8.64517 1.02011C8.33273 0.907627 8.02966 1.13883 8.02966 1.49501C8.02654 2.14176 8.02966 2.78539 8.02966 3.43213C8.02966 3.62585 8.02966 3.81643 8.02966 4.02264C7.79533 4.06014 7.56413 4.08826 7.33917 4.132C4.01795 4.80374 1.81213 6.75336 0.687348 9.93711C0.281178 11.0931 0.0905895 12.2929 0.0281019 13.5145C0.0124798 13.8364 0.00310802 14.1582 -1.71661e-05 14.4831C-0.0031414 14.758 0.181197 14.9611 0.437397 14.9799C0.671726 14.9986 0.874811 14.8268 0.934175 14.5737C1.5528 11.893 3.20873 10.1777 5.80197 9.33411C6.51746 9.09978 7.25794 8.9998 8.02966 8.97168Z"/>
</symbol><symbol id="export2" viewBox="0 0 16 16">
<path d="M8.02948 8.97168C8.02948 9.55906 8.02948 10.1277 8.02948 10.6932C8.02948 10.9432 8.03261 11.1931 8.02948 11.4431C8.02636 11.6524 8.09822 11.8242 8.29193 11.918C8.47939 12.0086 8.65123 11.9711 8.81995 11.8492C10.5134 10.637 12.2068 9.42784 13.9002 8.2187C14.5095 7.78441 15.1187 7.347 15.728 6.9127C16.0873 6.65651 16.0904 6.30657 15.7311 6.05037C13.4503 4.41944 11.1664 2.79163 8.88556 1.1607C8.81058 1.10759 8.73247 1.05135 8.64499 1.02011C8.33255 0.907627 8.02948 1.13883 8.02948 1.49501C8.02636 2.14176 8.02948 2.78539 8.02948 3.43213C8.02948 3.62585 8.02948 3.81643 8.02948 4.02264C7.79515 4.06014 7.56395 4.08826 7.33899 4.132C4.01776 4.80374 1.81194 6.75336 0.687165 9.93711C0.280994 11.0931 0.0904064 12.2929 0.0279188 13.5145C0.0122967 13.8364 0.00292492 14.1582 -0.000200272 14.4831C-0.00332451 14.758 0.181014 14.9611 0.437214 14.9799C0.671543 14.9986 0.874628 14.8268 0.933991 14.5737C1.55262 11.893 3.20855 10.1777 5.80179 9.33411C6.51728 9.09978 7.25776 8.9998 8.02948 8.97168Z"/>
</symbol><symbol id="favorites" viewBox="0 0 17 16">
<path d="M8.47898 0.384033C8.76054 0.384033 8.933 0.510738 9.04915 0.74655C9.72843 2.13326 10.4183 3.51998 11.0975 4.90669C11.1539 5.01932 11.2172 5.06859 11.3439 5.08619C12.8573 5.30088 14.3708 5.52262 15.8842 5.74435C16.3206 5.8077 16.5564 6.03999 16.4895 6.39899C16.4649 6.53625 16.3734 6.68408 16.2713 6.78263C15.1662 7.87369 14.0505 8.95772 12.9348 10.0418C12.8538 10.1192 12.8327 10.1861 12.8503 10.3022C13.1213 11.8473 13.3817 13.3959 13.6457 14.9445C13.688 15.1874 13.6211 15.388 13.4205 15.5323C13.2198 15.6766 13.0087 15.666 12.7905 15.5499C11.4108 14.8249 10.0311 14.0998 8.65496 13.3713C8.54585 13.3114 8.46138 13.3079 8.34875 13.3678C6.98668 14.0893 5.6246 14.8073 4.25548 15.5147C4.12526 15.5816 3.96688 15.6273 3.82258 15.6203C3.50581 15.6027 3.29112 15.2965 3.34743 14.9656C3.58676 13.5402 3.81906 12.1113 4.08654 10.6894C4.16045 10.3022 4.0971 10.0488 3.79794 9.76723C2.74206 8.78174 1.72491 7.76107 0.690151 6.75447C0.517692 6.58905 0.454339 6.38843 0.517692 6.16318C0.588083 5.92737 0.760543 5.79714 1.00339 5.76195C1.20753 5.73379 1.40815 5.70212 1.61228 5.67396C2.9638 5.47686 4.31532 5.27977 5.66683 5.08971C5.79002 5.07211 5.84633 5.02284 5.89913 4.91725C6.58192 3.5235 7.27176 2.13326 7.95808 0.739511C8.07423 0.507218 8.24317 0.387553 8.47898 0.384033Z"/>
</symbol><symbol id="garantee" viewBox="0 0 16 16">
<path d="M1.31685 5.06324C1.31685 4.36582 1.31372 3.66527 1.31685 2.96785C1.31685 2.53939 1.52952 2.32047 1.95798 2.31734C2.86494 2.31109 3.75313 2.20788 4.62569 1.94205C5.66087 1.62931 6.57096 1.10077 7.37158 0.378328C7.44977 0.309525 7.52483 0.234466 7.60301 0.165662C7.86572 -0.0626411 8.16595 -0.0595137 8.43491 0.165662C8.78206 0.456514 9.11982 0.759876 9.49199 1.01945C10.4396 1.6856 11.5061 2.05777 12.6476 2.20788C13.1167 2.27043 13.5921 2.28607 14.0643 2.30796C14.5022 2.32985 14.7148 2.53001 14.7179 2.96785C14.7273 4.11562 14.7555 5.26027 14.7367 6.40804C14.7117 7.83103 14.5366 9.23212 14.0549 10.5832C13.4294 12.3377 12.3317 13.7169 10.7742 14.7364C9.98925 15.2493 9.14484 15.6371 8.26603 15.9499C8.10653 16.0062 7.95329 16.0155 7.79379 15.9561C6.57721 15.5277 5.43569 14.9585 4.43804 14.1297C3.24023 13.1352 2.41458 11.8873 1.92045 10.4174C1.63272 9.56363 1.45759 8.68795 1.38878 7.79037C1.32311 6.88341 1.29183 5.9702 1.24805 5.06011C1.26994 5.06637 1.29496 5.06324 1.31685 5.06324ZM10.3145 5.51985C9.27307 6.50812 8.24727 7.48388 7.21208 8.46902C6.73984 7.94674 6.2801 7.43384 5.81411 6.91781C5.52013 7.18052 5.24179 7.42759 4.96032 7.67778C4.9916 7.71844 5.01349 7.74658 5.03851 7.7716C5.58894 8.38146 6.13937 8.99444 6.69293 9.60429C6.97752 9.91703 7.3059 9.92641 7.61865 9.63243C8.7414 8.57536 9.86415 7.51828 10.99 6.46433C11.0244 6.43306 11.0651 6.41117 11.112 6.37676C10.8368 6.07966 10.5803 5.80444 10.3145 5.51985Z"/>
</symbol><symbol id="links" viewBox="0 0 16 16">
<path d="M10.1946 7.04727C9.96263 7.29705 9.76638 7.55753 9.52374 7.76092C9.19189 8.03567 8.67806 7.98215 8.34622 7.67171C8.00723 7.35771 7.6183 7.16145 7.15443 7.12934C6.57637 7.08652 6.07682 7.2685 5.6629 7.67885C4.58529 8.75289 3.50768 9.8305 2.43364 10.9081C1.69501 11.6503 1.68788 12.8207 2.41223 13.5557C3.14015 14.2944 4.32481 14.2979 5.07414 13.5593C5.76638 12.8742 6.45505 12.182 7.14015 11.4897C7.24363 11.3863 7.3257 11.3648 7.46486 11.4148C8.0786 11.636 8.71375 11.7003 9.3596 11.6467C9.43096 11.6396 9.50233 11.636 9.57369 11.6325C9.5844 11.6325 9.59153 11.6432 9.62722 11.661C9.52731 11.7609 9.43453 11.8573 9.34176 11.95C8.36763 12.9242 7.40063 13.909 6.41223 14.8724C5.32392 15.9322 4.02151 16.264 2.58351 15.7966C1.18119 15.3327 0.32124 14.3229 0.0643268 12.8528C-0.142631 11.661 0.164238 10.5798 1.00277 9.70918C2.13391 8.52809 3.29002 7.37198 4.47111 6.24085C6.08395 4.68866 8.81366 4.99553 10.0697 6.84031C10.1196 6.91524 10.166 6.99731 10.1946 7.04727Z"/>
<path d="M6.36585 4.30687C6.54426 4.1356 6.72267 3.96432 6.89752 3.78948C7.81456 2.87601 8.72446 1.94827 9.64863 1.0455C11.6361 -0.895624 15.051 -0.00713126 15.8217 2.65835C16.2249 4.05353 15.9252 5.31669 14.9082 6.36575C13.8056 7.50402 12.6816 8.63158 11.5398 9.7306C9.91268 11.2935 7.16514 10.9831 5.91625 9.12043C5.76282 8.89207 5.76282 8.89207 5.9555 8.70295C6.07682 8.58163 6.19814 8.46031 6.32303 8.33899C6.72267 7.95362 7.25434 7.95005 7.66826 8.32471C8.30341 8.8992 9.10626 9.02766 9.84489 8.65299C10.0233 8.56379 10.191 8.4389 10.3302 8.29974C11.4042 7.2364 12.4675 6.1695 13.5345 5.09902C14.2873 4.34612 14.2945 3.1579 13.5559 2.42284C12.8137 1.68422 11.6361 1.69849 10.8797 2.45496C10.191 3.14363 9.50234 3.83587 8.8101 4.52097C8.76371 4.56736 8.65666 4.61017 8.60314 4.58877C7.90733 4.34256 7.19011 4.27476 6.45862 4.35326C6.43722 4.35683 6.41224 4.35326 6.38726 4.35326C6.38726 4.33542 6.37655 4.32115 6.36585 4.30687Z"/>
</symbol><symbol id="location" viewBox="0 0 16 16">
<path d="M8.20145 0.00333482C4.95218 -0.106167 2.28381 2.49519 2.28381 5.71972C2.28381 9.37922 5.79567 12.035 7.76406 15.8544C7.864 16.0484 8.14316 16.0486 8.24344 15.8547C10.0241 12.418 13.0676 10.1135 13.6316 6.80266C14.2156 3.37656 11.6749 0.120438 8.20145 0.00333482ZM8.00347 8.71572C6.34885 8.71572 5.00747 7.37431 5.00747 5.71972C5.00747 4.06513 6.34888 2.72372 8.00347 2.72372C9.65809 2.72372 10.9995 4.06513 10.9995 5.71972C10.9995 7.37431 9.65809 8.71572 8.00347 8.71572Z"/>
</symbol><symbol id="masters" viewBox="0 0 20 20">
<path d="M13.8165 13.3974C13.8165 11.8136 13.8121 10.2298 13.821 8.64607C13.821 8.46762 13.7585 8.36947 13.6247 8.2624C13.1741 7.89211 12.6789 7.54859 12.3086 7.10692C10.7026 5.17518 11.0728 2.36456 13.0893 0.84772C13.3883 0.624655 13.6872 0.40159 13.9816 0.178525C14.1913 0.0179182 14.4144 -0.0490013 14.6642 0.0759151C14.9185 0.205293 14.9899 0.423896 14.9899 0.687113C14.9899 1.47676 14.9854 2.26195 14.9899 3.0516C14.9943 3.4442 15.2218 3.71633 15.5609 3.76095C15.9847 3.81448 16.3149 3.51558 16.3238 3.06052C16.3327 2.56978 16.3238 2.07904 16.3283 1.58829C16.3283 1.2537 16.3193 0.9191 16.3327 0.584503C16.3506 0.111605 16.8279 -0.164995 17.2071 0.102683C17.8719 0.571119 18.5589 1.02171 19.0764 1.67306C20.5219 3.48881 20.2319 6.24589 18.4251 7.70473C18.1842 7.90103 17.9343 8.09287 17.68 8.27132C17.5417 8.36501 17.4971 8.47208 17.4971 8.63715C17.5016 11.769 17.5016 14.8963 17.5016 18.0282C17.5016 18.7018 17.2651 19.2595 16.7075 19.661C15.6323 20.4373 14.0396 19.7681 13.8478 18.4565C13.8255 18.2959 13.8165 18.1308 13.8165 17.9657C13.8165 16.4489 13.8165 14.9231 13.8165 13.3974Z"/>
<path d="M6.0271 9.32854C6.31262 9.37762 6.55353 9.41331 6.78552 9.46684C6.84351 9.48023 6.91936 9.56499 6.92382 9.61853C6.93274 10.5822 6.92828 11.5503 6.92828 12.5362C6.06279 12.5362 5.21514 12.5362 4.34073 12.5362C4.33627 12.4738 4.32734 12.4024 4.32734 12.331C4.32734 11.4521 4.3318 10.5777 4.32288 9.69883C4.32288 9.52484 4.38088 9.46238 4.54149 9.44008C4.75117 9.41331 4.96085 9.37316 5.17499 9.32408C4.54149 9.22593 3.96152 9.00733 3.44847 8.62366C2.5339 7.94108 2.02085 7.03097 1.9227 5.89334C1.91824 5.82642 1.95839 5.73274 2.00301 5.6792C3.06926 4.51034 4.38088 3.92145 5.9691 4.02852C7.30303 4.11775 8.39159 4.72002 9.27938 5.71043C9.324 5.7595 9.33738 5.86211 9.33292 5.9335C9.17231 7.68232 7.883 9.0341 6.13863 9.29731C6.11186 9.29731 6.09402 9.30624 6.0271 9.32854Z"/>
<path d="M7.53949 19.9912C6.25909 19.9912 4.99655 19.9912 3.71169 19.9912C3.70723 19.9242 3.69385 19.8618 3.69385 19.7993C3.69385 17.8453 3.69385 15.8912 3.69385 13.9372C3.69385 13.8078 3.69385 13.7141 3.87676 13.7141C5.059 13.723 6.23679 13.7186 7.41903 13.7186C7.45472 13.7186 7.49041 13.7275 7.53949 13.732C7.53949 15.8198 7.53949 17.8943 7.53949 19.9912Z"/>
<path d="M8.7174 19.9957C8.7174 19.8752 8.7174 19.786 8.7174 19.6968C8.7174 17.5643 8.7174 15.4318 8.7174 13.2993C8.7174 12.8085 8.59694 12.6568 8.1062 12.5319C8.1062 11.6709 8.1062 10.8099 8.1062 9.87744C8.46757 10.1184 8.81109 10.3102 9.10999 10.5556C10.4707 11.6664 11.1979 13.103 11.2202 14.8696C11.238 16.3552 11.2246 17.8409 11.2246 19.3265C11.2246 19.7726 10.9971 19.9957 10.551 19.9957C9.94872 20.0001 9.34644 19.9957 8.7174 19.9957Z"/>
<path d="M3.15406 9.91748C3.15406 10.7428 3.15406 11.5414 3.15406 12.3355C3.15406 12.4024 3.1496 12.4693 3.14513 12.5273C2.62316 12.679 2.52501 12.8129 2.52501 13.3571C2.52501 15.4763 2.52501 17.5954 2.52501 19.7145C2.52501 19.8037 2.52501 19.8885 2.52501 19.9911C1.8469 19.9911 1.19555 20.0045 0.544197 19.9866C0.24529 19.9777 0.0222248 19.7234 0.0222248 19.42C0.0177635 17.814 -0.0446946 16.2034 0.0445313 14.6063C0.156064 12.5363 1.20893 10.9971 3.01129 9.97994C3.04699 9.96209 3.07821 9.94871 3.15406 9.91748Z"/>
<path d="M9.34628 4.11783C6.85688 2.41362 4.39424 2.41362 1.93161 4.09999C1.56132 1.66858 3.01124 0.00897863 5.08128 0.0134399C5.7014 0.0134399 6.33937 -0.00886655 6.94611 0.107127C8.31572 0.365883 9.31059 1.61058 9.34182 3.00697C9.35075 3.3728 9.34628 3.74309 9.34628 4.11783Z"/>
</symbol><symbol id="new-order" viewBox="0 0 16 16">
<path d="M8.01611 0C8.01611 0.0928571 8.01611 0.164286 8.01611 0.232143C8.01611 1.68571 8.01611 3.13571 8.01611 4.58929C8.01611 5.27143 8.38397 5.77857 9.01254 5.94643C9.15897 5.98571 9.31968 5.99643 9.47326 5.99643C10.909 6 12.3411 6 13.7768 6C13.8483 6 13.9197 6 14.0197 6C14.0197 6.07143 14.0197 6.13214 14.0197 6.19643C14.0197 8.98214 14.0197 11.7679 14.0197 14.5536C14.0197 15.45 13.4661 16.0036 12.5697 16.0036C9.53397 16.0036 6.49826 16.0036 3.46254 16.0036C2.57683 16 2.01611 15.4464 2.01611 14.5643C2.01611 10.1893 2.01611 5.81429 2.01611 1.43929C2.01611 0.557143 2.57326 0 3.45897 0C4.91611 0 6.37326 0 7.83397 0C7.88754 0 7.93754 0 8.01611 0Z"/>
<path d="M9.35901 0.060791C10.8947 1.59651 12.4197 3.12151 13.9626 4.66793C13.8983 4.66793 13.8376 4.66793 13.7733 4.66793C12.3697 4.66793 10.9662 4.66436 9.56258 4.67151C9.39116 4.67151 9.34473 4.62865 9.34473 4.45365C9.35187 3.04293 9.3483 1.63579 9.3483 0.225077C9.3483 0.167934 9.35544 0.110791 9.35901 0.060791Z"/>
</symbol><symbol id="orders" viewBox="0 0 20 20">
<path d="M13.8644 3.94771C14.4501 3.94771 15.0358 3.936 15.6215 3.94771C16.3869 3.95943 16.9687 4.50999 17.0272 5.27141C17.1756 7.11835 17.3162 8.96528 17.4646 10.8161C17.613 12.6904 17.7535 14.5647 17.9175 16.435C18.0776 18.3015 16.6407 19.9532 14.7625 19.9883C13.2006 20.0157 11.6387 19.9961 10.0768 19.9961C8.50714 19.9961 6.94134 20 5.37165 19.9961C3.82537 19.9922 2.57977 19.0278 2.17368 17.5401C2.0253 17.0012 2.07996 16.4584 2.12291 15.9118C2.22444 14.6623 2.32206 13.4089 2.42358 12.1593C2.53681 10.7576 2.64615 9.35966 2.75938 7.95786C2.82967 7.09101 2.90386 6.22026 2.96633 5.35341C3.02491 4.5139 3.6028 3.95552 4.43842 3.95162C5.0046 3.94771 5.57079 3.95162 6.13697 3.95552L6.13307 3.95162C6.13307 4.74037 6.13697 5.52522 6.13697 6.31397C6.13697 6.38426 6.13697 6.45845 6.13697 6.52873C6.14478 6.89187 6.39078 7.15349 6.72268 7.15349C7.05458 7.15349 7.30448 6.89187 7.30448 6.52873C7.30839 5.66969 7.30839 4.81066 7.30839 3.95162L7.30448 3.95552C9.10066 3.95552 10.9007 3.95552 12.6969 3.95552L12.693 3.95162C12.693 4.80285 12.693 5.65408 12.6969 6.50921C12.6969 6.80987 12.8336 7.02073 13.0718 7.11444C13.4661 7.26673 13.8605 6.98168 13.8644 6.52873C13.8722 5.66969 13.8683 4.81066 13.8683 3.95162L13.8644 3.94771ZM9.19828 12.5381C9.14751 12.4912 9.10066 12.4483 9.0538 12.4014C8.77657 12.1242 8.50323 11.8509 8.226 11.5736C8.06981 11.4174 7.88629 11.3315 7.66372 11.3823C7.44505 11.4292 7.29277 11.5619 7.22248 11.7806C7.14439 12.0188 7.21858 12.2179 7.38258 12.3858C7.8121 12.8192 8.24552 13.2527 8.67895 13.6861C9.04599 14.0531 9.33884 14.0531 9.70198 13.69C10.6469 12.749 11.588 11.804 12.5329 10.863C12.5759 10.82 12.6149 10.781 12.654 10.7341C12.8648 10.4842 12.857 10.1601 12.6422 9.93756C12.4236 9.71108 12.0839 9.69937 11.8301 9.91413C11.7754 9.96099 11.7246 10.0117 11.6739 10.0625C10.8539 10.8864 10.03 11.7103 9.19828 12.5381Z"/>
<path d="M6.13696 3.9477C6.11744 1.76106 7.85114 -0.00778369 10.0104 2.57599e-05C12.1659 0.00783521 13.8878 1.76887 13.8644 3.9477L13.8683 3.9438C13.4778 3.9438 13.0835 3.9438 12.693 3.9438L12.6969 3.9477C12.693 3.88913 12.693 3.83056 12.6891 3.77199C12.6227 1.83134 10.5727 0.589639 8.83513 1.44477C7.81209 1.94848 7.3279 2.81143 7.30447 3.9438L7.30838 3.93989C6.91791 3.93989 6.52353 3.93989 6.13306 3.93989L6.13696 3.9477Z"/>
</symbol><symbol id="phone" viewBox="0 0 16 16">
<path d="M14.7162 10.5022C13.7366 10.5022 12.7747 10.349 11.8633 10.0478C11.4167 9.89542 10.8676 10.0352 10.595 10.3151L8.796 11.6732C6.70963 10.5595 5.42446 9.27475 4.32596 7.20404L5.64408 5.45188C5.98654 5.10988 6.10938 4.61029 5.96221 4.14154C5.65971 3.22529 5.50604 2.26392 5.50604 1.28392C5.50608 0.575958 4.93013 0 4.22221 0H1.28387C0.575958 0 0 0.575958 0 1.28387C0 9.39846 6.60158 16 14.7162 16C15.4241 16 16 15.424 16 14.7161V11.786C16 11.0781 15.424 10.5022 14.7162 10.5022Z"/>
</symbol><symbol id="plus" viewBox="0 0 20 20">
<path d="M9.98048 19.9962C8.62554 19.9962 7.2745 20.0001 5.91956 19.9962C3.10035 19.9884 0.769231 18.1414 0.144475 15.3886C0.0507614 14.9747 0.0117142 14.5374 0.00780945 14.1117C-0.00390472 11.3745 0 8.63342 0.00390472 5.89621C0.00780945 3.09262 1.88208 0.749783 4.61148 0.144551C5.03319 0.0508375 5.47442 0.0117902 5.90785 0.0117902C8.63725 -0.00382868 11.3627 7.60483e-05 14.0882 0.00398077C17.0793 0.0078855 19.508 2.11253 19.9414 5.07622C19.9805 5.35345 19.9922 5.63459 19.9922 5.91183C19.9961 8.63342 19.9961 11.3511 19.9922 14.0727C19.9883 16.9661 18.0398 19.3402 15.2011 19.8907C14.8262 19.9649 14.4397 19.9845 14.057 19.9884C12.6982 20.004 11.3393 19.9962 9.98048 19.9962ZM8.98868 8.9497C8.89496 8.9497 8.82468 8.9497 8.75439 8.9497C7.87583 8.9497 6.99727 8.9497 6.1187 8.9497C5.83366 8.9497 5.7048 9.0317 5.59937 9.30113C5.43147 9.74236 5.42757 10.1914 5.59547 10.6365C5.7009 10.9099 5.81804 10.988 6.11089 10.988C6.98946 10.988 7.86802 10.988 8.74658 10.988C8.82077 10.988 8.89887 10.988 8.98477 10.988C8.98477 11.0895 8.98477 11.1598 8.98477 11.2301C8.98477 12.1086 8.98477 12.9872 8.98477 13.8658C8.98477 14.1703 9.05896 14.3031 9.34401 14.3968C9.78524 14.5452 10.2343 14.5764 10.6794 14.3968C10.9449 14.2914 11.023 14.1703 11.023 13.8736C11.023 12.9872 11.023 12.1047 11.023 11.2183C11.023 11.1481 11.023 11.0778 11.023 10.9841C11.1207 10.9841 11.1988 10.9841 11.2729 10.9841C12.1515 10.9841 13.0301 10.9802 13.9086 10.988C14.1429 10.9919 14.2913 10.8904 14.3772 10.6834C14.5646 10.2383 14.5685 9.78532 14.4084 9.33237C14.303 9.03561 14.1741 8.9497 13.854 8.9497C12.9871 8.9497 12.1242 8.9497 11.2573 8.9497C11.187 8.9497 11.1167 8.9497 11.023 8.9497C11.023 8.8599 11.023 8.78961 11.023 8.71933C11.023 7.85248 11.023 6.98953 11.023 6.12268C11.023 5.81031 10.941 5.67755 10.6482 5.58774C10.2382 5.46279 9.82038 5.41983 9.40258 5.57212C9.07067 5.69707 8.98868 5.8064 8.98868 6.16173C8.98868 7.08325 8.98868 8.00086 8.98868 8.9497Z"/>
</symbol><symbol id="price" viewBox="0 0 17 16">
<path d="M11.9298 15.2363C9.43395 15.247 7.37013 13.1903 7.35942 10.6873C7.3487 8.16643 9.39825 6.1026 11.9191 6.09546C14.4364 6.09189 16.4824 8.12715 16.5002 10.648C16.5181 13.1617 14.4578 15.2291 11.9298 15.2363Z"/>
<path d="M5.68497 5.335C4.55308 5.32428 3.30693 5.14575 2.12148 4.63872C1.69658 4.45305 1.30381 4.22453 0.961028 3.91031C0.364733 3.36044 0.364733 2.72486 0.97174 2.17499C1.39307 1.7965 1.88582 1.53941 2.41428 1.34303C3.80682 0.821718 5.24579 0.696745 6.71689 0.800294C7.67382 0.868136 8.60218 1.05738 9.4877 1.4323C10.0019 1.64653 10.4875 1.91433 10.8588 2.34281C11.2659 2.81056 11.2694 3.26403 10.8731 3.73892C10.5196 4.16026 10.0554 4.42806 9.55911 4.63515C8.39508 5.11362 7.18107 5.33857 5.68497 5.335Z"/>
<path d="M0.503721 5.50293C2.59611 6.74908 4.85275 6.9776 7.22008 6.78836C7.11296 6.93118 7.00941 7.05258 6.93086 7.1847C6.7309 7.52748 6.54166 7.8774 6.35242 8.22732C6.30957 8.30945 6.27386 8.37015 6.1596 8.37372C4.75991 8.39871 3.39593 8.22732 2.09979 7.66673C1.62847 7.46321 1.18928 7.20612 0.83579 6.82049C0.603699 6.56698 0.485868 6.27419 0.503721 5.92783C0.510862 5.79572 0.503721 5.66004 0.503721 5.50293Z"/>
<path d="M7.0667 14.4152C6.69179 14.433 6.30616 14.4616 5.92053 14.4651C4.64224 14.4794 3.39609 14.3045 2.20707 13.8117C1.70361 13.6046 1.23229 13.3404 0.853803 12.9405C0.603859 12.6763 0.482457 12.3656 0.503881 12.0014C0.511022 11.8764 0.503881 11.7515 0.503881 11.6086C0.550299 11.6265 0.589576 11.6336 0.621712 11.6551C1.73932 12.3549 2.97476 12.6977 4.26733 12.8477C4.88505 12.9191 5.51348 12.9119 6.13477 12.9476C6.19547 12.9512 6.28473 12.9762 6.30973 13.019C6.55967 13.4725 6.80605 13.9296 7.0667 14.4152Z"/>
<path d="M5.85617 9.90191C5.85617 10.4197 5.85617 10.9124 5.85617 11.4301C5.53481 11.4159 5.20988 11.4087 4.88495 11.3802C3.81019 11.2909 2.76043 11.0731 1.79993 10.5661C1.45715 10.3839 1.1465 10.134 0.853711 9.88049C0.585913 9.6484 0.478794 9.32347 0.500218 8.96284C0.50736 8.8343 0.500218 8.70218 0.500218 8.5415C2.15699 9.56628 3.97087 9.88406 5.85617 9.90191Z"/>
</symbol><symbol id="products" viewBox="0 0 16 16">
<path d="M8 16C5.98846 16 3.97308 16 1.96154 16C0.780769 16 0 15.2192 0 14.0385C0 10.0115 0 5.98846 0 1.96154C0 0.780769 0.780769 0 1.96154 0C5.98846 0 10.0115 0 14.0385 0C15.2192 0 16 0.780769 16 1.96154C16 5.98846 16 10.0115 16 14.0385C16 15.2192 15.2192 16 14.0385 16C12.0269 16 10.0154 16 8 16ZM9.84615 3.69231C8.83462 3.69231 7.82308 3.69231 6.80769 3.69231C6.51538 3.69231 6.29615 3.83462 6.2 4.07692C6.03077 4.49615 6.33846 4.91923 6.81923 4.91923C8.83077 4.91923 10.8423 4.91923 12.8538 4.91923C13.2577 4.91923 13.5385 4.66154 13.5346 4.3C13.5308 3.93846 13.25 3.69231 12.8423 3.69231C11.8462 3.69231 10.8462 3.69231 9.84615 3.69231ZM9.84231 7.38462C8.83077 7.38462 7.81923 7.38462 6.80385 7.38462C6.51154 7.38462 6.29231 7.52692 6.19615 7.76923C6.02692 8.19231 6.33462 8.61154 6.81923 8.61154C8.82308 8.61154 10.8308 8.61154 12.8346 8.61154C13.2577 8.61154 13.5385 8.35769 13.5346 7.98846C13.5308 7.62692 13.25 7.38077 12.8385 7.38077C11.8423 7.38462 10.8423 7.38462 9.84231 7.38462ZM9.84615 11.0769C8.83462 11.0769 7.82308 11.0769 6.80769 11.0769C6.51538 11.0769 6.29615 11.2192 6.19615 11.4615C6.02692 11.8808 6.33462 12.3038 6.81538 12.3038C8.81923 12.3038 10.8269 12.3038 12.8308 12.3038C13.2538 12.3038 13.5346 12.0538 13.5346 11.6846C13.5308 11.3154 13.25 11.0769 12.8231 11.0769C11.8308 11.0769 10.8385 11.0769 9.84615 11.0769ZM3.7 5.53846C3.9 5.53846 4.09615 5.54231 4.29615 5.53846C4.65769 5.53077 4.91923 5.28077 4.92308 4.92308C4.93077 4.51154 4.93077 4.10385 4.92308 3.69231C4.91923 3.34231 4.66154 3.08462 4.31154 3.08077C3.9 3.07308 3.49231 3.07308 3.08077 3.08077C2.72308 3.08462 2.46923 3.34231 2.46154 3.70385C2.45769 4.10769 2.45769 4.51154 2.46154 4.91538C2.46538 5.27308 2.72308 5.53077 3.08077 5.53846C3.28846 5.54231 3.49231 5.53846 3.7 5.53846ZM3.70769 6.76923C3.50385 6.76923 3.29615 6.76538 3.09231 6.76923C2.72308 6.77692 2.46538 7.03077 2.46154 7.4C2.45769 7.79615 2.45769 8.19231 2.46154 8.59231C2.46538 8.96154 2.71923 9.22308 3.08846 9.22692C3.49231 9.23077 3.89615 9.23077 4.3 9.22692C4.65769 9.22308 4.91538 8.96538 4.91923 8.60385C4.92308 8.2 4.92308 7.79615 4.91923 7.39231C4.91538 7.02692 4.65385 6.77308 4.28462 6.76538C4.09231 6.76923 3.9 6.76923 3.70769 6.76923ZM3.67692 12.9231C3.88077 12.9231 4.08846 12.9269 4.29231 12.9231C4.66154 12.9154 4.91923 12.6615 4.92308 12.2923C4.92692 11.8962 4.92692 11.5 4.92308 11.1C4.91923 10.7269 4.66538 10.4692 4.29615 10.4654C3.89231 10.4615 3.48846 10.4615 3.08462 10.4654C2.72308 10.4692 2.46923 10.7269 2.46538 11.0846C2.46154 11.4885 2.46154 11.8923 2.46538 12.2962C2.46923 12.6615 2.73077 12.9154 3.1 12.9231C3.29231 12.9269 3.48462 12.9231 3.67692 12.9231Z"/>
</symbol><symbol id="profile" viewBox="0 0 15 16">
<path d="M7.48983 16C5.57313 16 3.65302 16.0031 1.73632 16C0.857968 16 0.160056 15.4625 0.0272823 14.6719C-0.0101666 14.4563 0.01026 14.2344 0.00685559 14.0156C-0.0101666 13.3063 0.0374956 12.6 0.231549 11.9094C0.589016 10.6344 1.29374 9.54376 2.31507 8.61876C2.97553 8.01876 3.83686 7.98126 4.61307 8.39064C6.53318 9.40314 8.48393 9.38439 10.4211 8.39064C10.6355 8.28126 10.867 8.17814 11.1054 8.13126C11.6637 8.02189 12.1607 8.17501 12.5795 8.52814C13.4783 9.28439 14.1319 10.1906 14.5507 11.2438C14.8605 12.025 15.0137 12.8313 15 13.6625C14.9966 13.9969 15.0273 14.3344 14.9796 14.6594C14.8639 15.4563 14.1557 16 13.2672 16C11.3335 16.0031 9.41335 16 7.48983 16Z"/>
<path d="M7.50694 7.74063C5.19532 7.75001 3.29224 6.01251 3.28202 3.88438C3.27181 1.75626 5.15447 0.00938258 7.4729 7.58388e-06C9.80495 -0.00936742 11.7046 1.71251 11.7148 3.85313C11.7285 5.98438 9.83899 7.73126 7.50694 7.74063Z"/>
</symbol><symbol id="registration" viewBox="0 0 20 20">
<path d="M20 10.0079C19.9922 15.5039 15.4688 20.0196 9.98439 20C4.4922 19.9844 -0.00780234 15.4766 1.01572e-05 9.99223C0.00782266 4.49613 4.53126 -0.0155845 10.0156 4.04626e-05C15.5117 0.0156655 20.0078 4.52348 20 10.0079ZM4.46095 10.1602C5.90235 11.6055 7.35548 13.0586 8.81642 14.5196C11.2188 12.336 13.6328 10.1407 16.0586 7.93363C15.5274 7.3477 15.0078 6.77738 14.4805 6.20317C12.6016 7.9102 10.7344 9.60942 8.85157 11.3164C7.91017 10.375 6.98439 9.45317 6.07423 8.5391C5.53126 9.09379 4.98439 9.64067 4.46095 10.1602Z"/>
</symbol><symbol id="registred" viewBox="0 0 20 20">
<path d="M10 20C7.48558 20 4.96635 20 2.45192 20C0.975962 20 0 19.024 0 17.5481C0 12.5144 0 7.48558 0 2.45192C0 0.975962 0.975962 0 2.45192 0C7.48558 0 12.5144 0 17.5481 0C19.024 0 20 0.975962 20 2.45192C20 7.48558 20 12.5144 20 17.5481C20 19.024 19.024 20 17.5481 20C15.0337 20 12.5192 20 10 20ZM12.3077 4.61538C11.0433 4.61538 9.77885 4.61538 8.50962 4.61538C8.14423 4.61538 7.87019 4.79327 7.75 5.09615C7.53846 5.62019 7.92308 6.14904 8.52404 6.14904C11.0385 6.14904 13.5529 6.14904 16.0673 6.14904C16.5721 6.14904 16.9231 5.82692 16.9183 5.375C16.9135 4.92308 16.5625 4.61538 16.0529 4.61538C14.8077 4.61538 13.5577 4.61538 12.3077 4.61538ZM12.3029 9.23077C11.0385 9.23077 9.77404 9.23077 8.50481 9.23077C8.13942 9.23077 7.86539 9.40865 7.74519 9.71154C7.53365 10.2404 7.91827 10.7644 8.52404 10.7644C11.0288 10.7644 13.5385 10.7644 16.0433 10.7644C16.5721 10.7644 16.9231 10.4471 16.9183 9.98558C16.9135 9.53365 16.5625 9.22596 16.0481 9.22596C14.8029 9.23077 13.5529 9.23077 12.3029 9.23077ZM12.3077 13.8462C11.0433 13.8462 9.77885 13.8462 8.50962 13.8462C8.14423 13.8462 7.87019 14.024 7.74519 14.3269C7.53365 14.851 7.91827 15.3798 8.51923 15.3798C11.024 15.3798 13.5337 15.3798 16.0385 15.3798C16.5673 15.3798 16.9183 15.0673 16.9183 14.6058C16.9135 14.1442 16.5625 13.8462 16.0288 13.8462C14.7885 13.8462 13.5481 13.8462 12.3077 13.8462ZM4.625 6.92308C4.875 6.92308 5.12019 6.92788 5.37019 6.92308C5.82212 6.91346 6.14904 6.60096 6.15385 6.15385C6.16346 5.63942 6.16346 5.12981 6.15385 4.61538C6.14904 4.17788 5.82692 3.85577 5.38942 3.85096C4.875 3.84135 4.36538 3.84135 3.85096 3.85096C3.40385 3.85577 3.08654 4.17789 3.07692 4.62981C3.07212 5.13462 3.07212 5.63942 3.07692 6.14423C3.08173 6.59135 3.40385 6.91346 3.85096 6.92308C4.11058 6.92788 4.36538 6.92308 4.625 6.92308ZM4.63462 8.46154C4.37981 8.46154 4.12019 8.45673 3.86538 8.46154C3.40385 8.47115 3.08173 8.78846 3.07692 9.25C3.07212 9.74519 3.07212 10.2404 3.07692 10.7404C3.08173 11.2019 3.39904 11.5288 3.86058 11.5337C4.36539 11.5385 4.87019 11.5385 5.375 11.5337C5.82212 11.5288 6.14423 11.2067 6.14904 10.7548C6.15385 10.25 6.15385 9.74519 6.14904 9.24039C6.14423 8.78365 5.81731 8.46635 5.35577 8.45673C5.11538 8.46154 4.875 8.46154 4.63462 8.46154ZM4.59615 16.1538C4.85096 16.1538 5.11058 16.1587 5.36538 16.1538C5.82692 16.1442 6.14904 15.8269 6.15385 15.3654C6.15865 14.8702 6.15865 14.375 6.15385 13.875C6.14904 13.4087 5.83173 13.0865 5.37019 13.0817C4.86538 13.0769 4.36058 13.0769 3.85577 13.0817C3.40385 13.0865 3.08654 13.4087 3.08173 13.8558C3.07692 14.3606 3.07692 14.8654 3.08173 15.3702C3.08654 15.8269 3.41346 16.1442 3.875 16.1538C4.11538 16.1587 4.35577 16.1538 4.59615 16.1538Z"/>
</symbol><symbol id="remaining" viewBox="0 0 17 16">
<path d="M7.84295 8.65683C7.9429 8.65683 8.02144 8.65683 8.09641 8.65683C10.1134 8.65683 12.1303 8.65683 14.1437 8.65683C14.54 8.65683 14.6114 8.72823 14.6042 9.12805C14.5257 12.5729 11.909 15.4859 8.49623 15.9286C4.67293 16.4248 1.21376 13.8438 0.592612 10.0276C1.96099e-05 6.38642 2.43822 2.82729 6.0616 2.07049C6.50783 1.97767 6.96477 1.94197 7.42171 1.90271C7.75727 1.87415 7.84652 1.97767 7.84652 2.31324C7.84652 4.3409 7.84652 6.36857 7.84652 8.39623C7.84295 8.4712 7.84295 8.54974 7.84295 8.65683Z"/>
<path d="M12.8584 7.33239C11.7696 7.33239 10.6808 7.33239 9.59195 7.33239C9.23854 7.33239 9.16357 7.25742 9.16357 6.90044C9.16357 4.74069 9.16357 2.58094 9.16357 0.424755C9.16357 0.0713418 9.24211 -0.00719454 9.59195 -5.48723e-05C12.9476 0.0499228 15.8499 2.54881 16.3925 5.86161C16.4532 6.22217 16.4746 6.59343 16.496 6.96112C16.5139 7.23243 16.4103 7.32525 16.1426 7.32525C15.0502 7.32525 13.9543 7.32525 12.8619 7.32525C12.8584 7.32525 12.8584 7.32882 12.8584 7.33239Z"/>
</symbol><symbol id="remains" viewBox="0 0 20 20">
<path d="M8.14846 0C8.14846 0.101562 8.14846 0.175781 8.14846 0.253906C8.14846 1.10547 8.14846 1.95703 8.14846 2.8125C8.14846 3.29688 8.36721 3.51562 8.84768 3.51562C9.62893 3.51562 10.4102 3.51562 11.1914 3.51562C11.6211 3.51562 11.8516 3.28516 11.8555 2.85156C11.8594 1.98437 11.8555 1.12109 11.8555 0.253906C11.8555 0.175781 11.8555 0.101563 11.8555 0.0078125C11.9336 0.00390625 11.9961 -0.00390625 12.0586 -0.00390625C12.9102 -0.00390625 13.7617 -0.00390625 14.6172 -0.00390625C15.0625 -0.00390625 15.293 0.222656 15.293 0.667969C15.293 3.36328 15.293 6.05469 15.293 8.75C15.293 9.18359 15.0586 9.41016 14.6289 9.41406C11.543 9.41406 8.46096 9.41406 5.37503 9.41406C4.94534 9.41406 4.70706 9.18359 4.70706 8.75391C4.70706 6.05469 4.70315 3.35156 4.70706 0.652344C4.70706 0.230469 4.94534 0 5.36331 0C6.28128 0 7.19534 0 8.14846 0ZM12.1836 7.85156C12.3711 7.85156 12.5625 7.85547 12.75 7.85156C13.086 7.84375 13.3321 7.59375 13.336 7.26953C13.336 6.94922 13.0899 6.69141 12.7578 6.68359C12.3672 6.67578 11.9766 6.67578 11.586 6.68359C11.25 6.6875 11.0039 6.94141 11 7.26562C11 7.58594 11.2461 7.84375 11.5782 7.85156C11.7813 7.85547 11.9844 7.85156 12.1836 7.85156Z"/>
<path d="M6.5625 10.5938C7.52734 10.5938 8.46094 10.5938 9.40625 10.5938C9.40625 13.7266 9.40625 16.8477 9.40625 20C9.33984 20 9.26953 20 9.20312 20C6.36328 20 3.52734 20 0.6875 20C0.226562 20 0 19.7773 0 19.3203C0 16.6328 0 13.9453 0 11.2578C0 10.8164 0.230469 10.5859 0.675781 10.5859C1.39062 10.5859 2.10547 10.5859 2.85156 10.5859C2.85156 10.6641 2.85156 10.7305 2.85156 10.8008C2.85156 11.6797 2.85156 12.5586 2.85156 13.4375C2.85156 13.8672 3.08594 14.1016 3.51562 14.1016C4.30859 14.1016 5.10547 14.1016 5.89844 14.1016C6.32812 14.1016 6.5625 13.8672 6.5625 13.4375C6.5625 12.5664 6.5625 11.6914 6.5625 10.8203C6.5625 10.75 6.5625 10.6797 6.5625 10.5938ZM6.87109 18.4375C7.06641 18.4375 7.26172 18.4414 7.45703 18.4375C7.79297 18.4297 8.04297 18.1797 8.04688 17.8594C8.05078 17.5313 7.79297 17.2734 7.44922 17.2695C7.06641 17.2656 6.67969 17.2656 6.29688 17.2695C5.96484 17.2734 5.71094 17.5312 5.70703 17.8477C5.70312 18.1758 5.96094 18.4297 6.30469 18.4375C6.49219 18.4414 6.68359 18.4375 6.87109 18.4375Z"/>
<path d="M10.5898 20C10.5898 16.8516 10.5898 13.7344 10.5898 10.6016C11.5313 10.6016 12.4727 10.6016 13.4375 10.6016C13.4375 10.6641 13.4375 10.7344 13.4375 10.8008C13.4375 11.6719 13.4375 12.5469 13.4375 13.418C13.4375 13.875 13.6641 14.0977 14.1211 14.1016C14.9102 14.1016 15.6953 14.1016 16.4844 14.1016C16.9141 14.1016 17.1445 13.8672 17.1445 13.4375C17.1445 12.5664 17.1445 11.6914 17.1445 10.8203C17.1445 10.75 17.1445 10.6797 17.1445 10.5859C17.3867 10.5859 17.6133 10.5859 17.8359 10.5859C18.3438 10.5859 18.8516 10.5859 19.3594 10.5859C19.75 10.5859 19.9961 10.8281 19.9961 11.2188C19.9961 13.9336 19.9961 16.6484 19.9961 19.3633C19.9961 19.7578 19.7578 20 19.3672 20C16.4883 20 13.6133 20 10.7344 20C10.6953 20 10.6523 20 10.5898 20ZM17.4453 18.4375C17.6484 18.4375 17.8477 18.4414 18.0508 18.4375C18.3828 18.4258 18.6328 18.168 18.6328 17.8477C18.6289 17.5273 18.3789 17.2734 18.043 17.2695C17.6602 17.2617 17.2734 17.2656 16.8906 17.2695C16.5469 17.2734 16.2891 17.5313 16.2891 17.8594C16.293 18.1836 16.5508 18.4336 16.8984 18.4414C17.082 18.4414 17.2656 18.4375 17.4453 18.4375Z"/>
<path d="M9.32812 0.0078125C9.78516 0.0078125 10.2227 0.0078125 10.6719 0.0078125C10.6719 0.785156 10.6719 1.55859 10.6719 2.33594C10.2227 2.33594 9.78125 2.33594 9.32812 2.33594C9.32813 1.5625 9.32812 0.796875 9.32812 0.0078125Z"/>
<path d="M5.38281 10.6016C5.38281 11.375 5.38281 12.1406 5.38281 12.918C4.93359 12.918 4.48828 12.918 4.03125 12.918C4.03125 12.1484 4.03125 11.3828 4.03125 10.6016C4.47266 10.6016 4.91797 10.6016 5.38281 10.6016Z"/>
<path d="M14.625 10.5938C15.0781 10.5938 15.5195 10.5938 15.9688 10.5938C15.9688 11.3672 15.9688 12.1328 15.9688 12.9141C15.5273 12.9141 15.082 12.9141 14.625 12.9141C14.625 12.1523 14.625 11.3828 14.625 10.5938Z"/>
</symbol><symbol id="return" viewBox="0 0 20 20">
<path d="M9.9629 11.2147C9.9629 11.9489 9.9629 12.6597 9.9629 13.3666C9.9629 13.679 9.959 13.9915 9.9629 14.3039C9.96681 14.5656 9.87698 14.7804 9.63484 14.8975C9.40051 15.0108 9.18571 14.9639 8.97482 14.8116C6.85804 13.2963 4.74127 11.7849 2.62449 10.2734C1.86292 9.73057 1.10135 9.1838 0.339784 8.64094C-0.109347 8.32069 -0.113253 7.88328 0.335878 7.56303C3.18688 5.52436 6.04179 3.4896 8.8928 1.45094C8.98653 1.38455 9.08417 1.31425 9.19352 1.27519C9.58407 1.1346 9.9629 1.4236 9.9629 1.86883C9.96681 2.67726 9.9629 3.48179 9.9629 4.29023C9.9629 4.53237 9.9629 4.7706 9.9629 5.02837C10.2558 5.07523 10.5448 5.11038 10.826 5.16506C14.9775 6.00474 17.7348 8.44176 19.1408 12.4215C19.6485 13.8665 19.8867 15.3662 19.9649 16.8932C19.9844 17.2955 19.9961 17.6978 20 18.1039C20.0039 18.4476 19.7735 18.7015 19.4532 18.7249C19.1603 18.7483 18.9065 18.5335 18.8323 18.2172C18.059 14.8663 15.9891 12.7222 12.7475 11.6677C11.8532 11.3748 10.9276 11.2498 9.9629 11.2147Z"/>
</symbol><symbol id="wish" viewBox="0 0 16 16">
<path d="M8.00129 3.38265C8.14377 3.17019 8.27625 2.96022 8.42122 2.75775C8.92864 2.04786 9.56854 1.49795 10.3884 1.178C11.0083 0.935534 11.6507 0.880543 12.3056 0.968029C13.0755 1.07051 13.7629 1.36297 14.3628 1.85789C15.0302 2.4103 15.4851 3.1052 15.7451 3.92507C16.13 5.13988 16.0825 6.33969 15.5926 7.51451C15.3051 8.2044 14.8852 8.8143 14.4053 9.38421C13.6229 10.3166 12.7281 11.1314 11.8107 11.9263C10.6634 12.9212 9.50855 13.911 8.35623 14.9034C8.13377 15.0958 7.87631 15.1033 7.66384 14.9208C6.20657 13.6585 4.7418 12.4037 3.29702 11.1289C2.57214 10.489 1.89724 9.79665 1.30983 9.02427C0.752421 8.29688 0.314989 7.50701 0.11752 6.60215C-0.0449548 5.84977 -0.0374559 5.09738 0.135017 4.3475C0.342485 3.44514 0.762419 2.65777 1.44481 2.02286C2.04972 1.46045 2.75961 1.11301 3.57948 0.985526C4.30687 0.870544 5.01675 0.930535 5.69915 1.21299C6.43653 1.52044 7.02644 2.01787 7.50137 2.65277C7.67634 2.88523 7.83132 3.13269 8.00129 3.38265Z"/>
</symbol><symbol id="wishlist" viewBox="0 0 16 16">
<path d="M7.99063 16.0001C3.56876 15.9907 -0.00624182 12.4094 8.18245e-06 7.9938C0.00625818 3.5688 3.60313 -0.0155741 8.01876 5.08909e-05C12.4438 0.0156759 16.0156 3.60318 16 8.01568C15.9875 12.4376 12.4031 16.0094 7.99063 16.0001ZM14.4313 8.0063C14.4375 4.47193 11.5375 1.57818 7.98438 1.5688C4.48438 1.56255 1.56876 4.4813 1.56876 7.98755C1.56876 11.5251 4.45313 14.4188 7.99063 14.4313C11.5156 14.4438 14.425 11.5407 14.4313 8.0063Z"/>
<path d="M2.55322 8.45C2.69697 8.45 2.84385 8.45 2.9876 8.45C3.31572 8.44687 3.53135 8.25625 3.5251 7.97188C3.51885 7.69688 3.30322 7.50625 2.9876 7.50313C2.84385 7.50313 2.7001 7.50313 2.55322 7.50313C2.76572 4.76563 5.0876 2.71875 7.46572 2.5625C7.46572 2.70625 7.4626 2.85313 7.46572 2.99688C7.47197 3.29375 7.65947 3.49687 7.92822 3.5C8.20322 3.50313 8.40322 3.29688 8.40635 2.99688C8.40947 2.84688 8.40635 2.69688 8.40635 2.54688C11.0001 2.69688 13.2095 4.8375 13.4407 7.44375C13.2563 7.44375 13.0688 7.4375 12.8876 7.44375C12.547 7.45625 12.3282 7.76562 12.4438 8.075C12.5157 8.26875 12.6626 8.37812 12.872 8.38437C13.0626 8.39062 13.2563 8.38437 13.447 8.38437C13.4001 10.6125 11.4845 13.2063 8.47197 13.4563C8.47197 13.25 8.47822 13.0437 8.46885 12.8375C8.45947 12.5812 8.24697 12.3938 7.99385 12.3969C7.74697 12.4 7.54697 12.5875 7.53447 12.8375C7.5251 12.9875 7.53135 13.1406 7.53135 13.2906C7.53135 13.3406 7.53135 13.3938 7.53135 13.4438C5.08447 13.3219 2.7251 11.1875 2.55322 8.45ZM8.00635 7.33125C7.9501 7.27813 7.90947 7.24062 7.86885 7.2C7.13135 6.4625 6.39697 5.72812 5.65947 4.99062C5.61572 4.94687 5.57197 4.9 5.52197 4.86562C5.2501 4.67188 4.8626 4.8125 4.79072 5.13438C4.74385 5.3375 4.8251 5.49687 4.96885 5.6375C5.8501 6.51562 6.72822 7.39687 7.60947 8.275C7.8751 8.54062 8.12822 8.5375 8.39385 8.27188C8.88135 7.7875 9.36572 7.3 9.8501 6.8125C9.88447 6.77812 9.91572 6.74687 9.94385 6.70937C10.1688 6.41875 10.0157 6.01562 9.65322 5.95C9.47197 5.91875 9.32822 5.99062 9.20635 6.11562C8.8126 6.52187 8.41572 6.91875 8.00635 7.33125Z"/>
</symbol></svg>