<svg xmlns="http://www.w3.org/2000/svg" xmlns:xlink="http://www.w3.org/1999/xlink"><symbol id="arrow-left" viewBox="0 0 12 14">
<path d="M1.15966 6.99996C1.15966 6.74905 1.24178 6.49818 1.40567 6.30688L6.56545 0.287198C6.89367 -0.0957326 7.42584 -0.0957326 7.75393 0.287198C8.08202 0.669973 8.08202 1.29071 7.75393 1.67367L3.18827 6.99996L7.75377 12.3263C8.08186 12.7092 8.08186 13.3299 7.75377 13.7126C7.42568 14.0957 6.89352 14.0957 6.56529 13.7126L1.40551 7.69304C1.24159 7.50165 1.15966 7.25078 1.15966 6.99996Z"/>
</symbol><symbol id="arrow-right" viewBox="0 0 12 14">
<path d="M10.8403 7.00004C10.8403 7.25095 10.7582 7.50182 10.5943 7.69312L5.43455 13.7128C5.10633 14.0957 4.57416 14.0957 4.24607 13.7128C3.91798 13.33 3.91798 12.7093 4.24607 12.3263L8.81173 7.00004L4.24623 1.67371C3.91814 1.29078 3.91814 0.670114 4.24623 0.28737C4.57432 -0.095747 5.10648 -0.0957471 5.43471 0.28737L10.5945 6.30696C10.7584 6.49835 10.8403 6.74922 10.8403 7.00004Z"/>
</symbol><symbol id="links" viewBox="0 0 16 16">
<path d="M10.1946 7.04727C9.96263 7.29705 9.76638 7.55753 9.52374 7.76092C9.19189 8.03567 8.67806 7.98215 8.34622 7.67171C8.00723 7.35771 7.6183 7.16145 7.15443 7.12934C6.57637 7.08652 6.07682 7.2685 5.6629 7.67885C4.58529 8.75289 3.50768 9.8305 2.43364 10.9081C1.69501 11.6503 1.68788 12.8207 2.41223 13.5557C3.14015 14.2944 4.32481 14.2979 5.07414 13.5593C5.76638 12.8742 6.45505 12.182 7.14015 11.4897C7.24363 11.3863 7.3257 11.3648 7.46486 11.4148C8.0786 11.636 8.71375 11.7003 9.3596 11.6467C9.43096 11.6396 9.50233 11.636 9.57369 11.6325C9.5844 11.6325 9.59153 11.6432 9.62722 11.661C9.52731 11.7609 9.43453 11.8573 9.34176 11.95C8.36763 12.9242 7.40063 13.909 6.41223 14.8724C5.32392 15.9322 4.02151 16.264 2.58351 15.7966C1.18119 15.3327 0.32124 14.3229 0.0643268 12.8528C-0.142631 11.661 0.164238 10.5798 1.00277 9.70918C2.13391 8.52809 3.29002 7.37198 4.47111 6.24085C6.08395 4.68866 8.81366 4.99553 10.0697 6.84031C10.1196 6.91524 10.166 6.99731 10.1946 7.04727Z"/>
<path d="M6.36585 4.30687C6.54426 4.1356 6.72267 3.96432 6.89752 3.78948C7.81456 2.87601 8.72446 1.94827 9.64863 1.0455C11.6361 -0.895624 15.051 -0.00713126 15.8217 2.65835C16.2249 4.05353 15.9252 5.31669 14.9082 6.36575C13.8056 7.50402 12.6816 8.63158 11.5398 9.7306C9.91268 11.2935 7.16514 10.9831 5.91625 9.12043C5.76282 8.89207 5.76282 8.89207 5.9555 8.70295C6.07682 8.58163 6.19814 8.46031 6.32303 8.33899C6.72267 7.95362 7.25434 7.95005 7.66826 8.32471C8.30341 8.8992 9.10626 9.02766 9.84489 8.65299C10.0233 8.56379 10.191 8.4389 10.3302 8.29974C11.4042 7.2364 12.4675 6.1695 13.5345 5.09902C14.2873 4.34612 14.2945 3.1579 13.5559 2.42284C12.8137 1.68422 11.6361 1.69849 10.8797 2.45496C10.191 3.14363 9.50234 3.83587 8.8101 4.52097C8.76371 4.56736 8.65666 4.61017 8.60314 4.58877C7.90733 4.34256 7.19011 4.27476 6.45862 4.35326C6.43722 4.35683 6.41224 4.35326 6.38726 4.35326C6.38726 4.33542 6.37655 4.32115 6.36585 4.30687Z"/>
</symbol><symbol id="location" viewBox="0 0 16 16">
<path d="M8.20145 0.00333482C4.95218 -0.106167 2.28381 2.49519 2.28381 5.71972C2.28381 9.37922 5.79567 12.035 7.76406 15.8544C7.864 16.0484 8.14316 16.0486 8.24344 15.8547C10.0241 12.418 13.0676 10.1135 13.6316 6.80266C14.2156 3.37656 11.6749 0.120438 8.20145 0.00333482ZM8.00347 8.71572C6.34885 8.71572 5.00747 7.37431 5.00747 5.71972C5.00747 4.06513 6.34888 2.72372 8.00347 2.72372C9.65809 2.72372 10.9995 4.06513 10.9995 5.71972C10.9995 7.37431 9.65809 8.71572 8.00347 8.71572Z"/>
</symbol><symbol id="orders" viewBox="0 0 20 20">
<path d="M13.8644 3.94771C14.4501 3.94771 15.0358 3.936 15.6215 3.94771C16.3869 3.95943 16.9687 4.50999 17.0272 5.27141C17.1756 7.11835 17.3162 8.96528 17.4646 10.8161C17.613 12.6904 17.7535 14.5647 17.9175 16.435C18.0776 18.3015 16.6407 19.9532 14.7625 19.9883C13.2006 20.0157 11.6387 19.9961 10.0768 19.9961C8.50714 19.9961 6.94134 20 5.37165 19.9961C3.82537 19.9922 2.57977 19.0278 2.17368 17.5401C2.0253 17.0012 2.07996 16.4584 2.12291 15.9118C2.22444 14.6623 2.32206 13.4089 2.42358 12.1593C2.53681 10.7576 2.64615 9.35966 2.75938 7.95786C2.82967 7.09101 2.90386 6.22026 2.96633 5.35341C3.02491 4.5139 3.6028 3.95552 4.43842 3.95162C5.0046 3.94771 5.57079 3.95162 6.13697 3.95552L6.13307 3.95162C6.13307 4.74037 6.13697 5.52522 6.13697 6.31397C6.13697 6.38426 6.13697 6.45845 6.13697 6.52873C6.14478 6.89187 6.39078 7.15349 6.72268 7.15349C7.05458 7.15349 7.30448 6.89187 7.30448 6.52873C7.30839 5.66969 7.30839 4.81066 7.30839 3.95162L7.30448 3.95552C9.10066 3.95552 10.9007 3.95552 12.6969 3.95552L12.693 3.95162C12.693 4.80285 12.693 5.65408 12.6969 6.50921C12.6969 6.80987 12.8336 7.02073 13.0718 7.11444C13.4661 7.26673 13.8605 6.98168 13.8644 6.52873C13.8722 5.66969 13.8683 4.81066 13.8683 3.95162L13.8644 3.94771ZM9.19828 12.5381C9.14751 12.4912 9.10066 12.4483 9.0538 12.4014C8.77657 12.1242 8.50323 11.8509 8.226 11.5736C8.06981 11.4174 7.88629 11.3315 7.66372 11.3823C7.44505 11.4292 7.29277 11.5619 7.22248 11.7806C7.14439 12.0188 7.21858 12.2179 7.38258 12.3858C7.8121 12.8192 8.24552 13.2527 8.67895 13.6861C9.04599 14.0531 9.33884 14.0531 9.70198 13.69C10.6469 12.749 11.588 11.804 12.5329 10.863C12.5759 10.82 12.6149 10.781 12.654 10.7341C12.8648 10.4842 12.857 10.1601 12.6422 9.93756C12.4236 9.71108 12.0839 9.69937 11.8301 9.91413C11.7754 9.96099 11.7246 10.0117 11.6739 10.0625C10.8539 10.8864 10.03 11.7103 9.19828 12.5381Z"/>
<path d="M6.13696 3.9477C6.11744 1.76106 7.85114 -0.00778369 10.0104 2.57599e-05C12.1659 0.00783521 13.8878 1.76887 13.8644 3.9477L13.8683 3.9438C13.4778 3.9438 13.0835 3.9438 12.693 3.9438L12.6969 3.9477C12.693 3.88913 12.693 3.83056 12.6891 3.77199C12.6227 1.83134 10.5727 0.589639 8.83513 1.44477C7.81209 1.94848 7.3279 2.81143 7.30447 3.9438L7.30838 3.93989C6.91791 3.93989 6.52353 3.93989 6.13306 3.93989L6.13696 3.9477Z"/>
</symbol><symbol id="phone" viewBox="0 0 16 16">
<path d="M14.7162 10.5022C13.7366 10.5022 12.7747 10.349 11.8633 10.0478C11.4167 9.89542 10.8676 10.0352 10.595 10.3151L8.796 11.6732C6.70963 10.5595 5.42446 9.27475 4.32596 7.20404L5.64408 5.45188C5.98654 5.10988 6.10938 4.61029 5.96221 4.14154C5.65971 3.22529 5.50604 2.26392 5.50604 1.28392C5.50608 0.575958 4.93013 0 4.22221 0H1.28387C0.575958 0 0 0.575958 0 1.28387C0 9.39846 6.60158 16 14.7162 16C15.4241 16 16 15.424 16 14.7161V11.786C16 11.0781 15.424 10.5022 14.7162 10.5022Z"/>
</symbol><symbol id="profile" viewBox="0 0 15 16">
<path d="M7.48983 16C5.57313 16 3.65302 16.0031 1.73632 16C0.857968 16 0.160056 15.4625 0.0272823 14.6719C-0.0101666 14.4563 0.01026 14.2344 0.00685559 14.0156C-0.0101666 13.3063 0.0374956 12.6 0.231549 11.9094C0.589016 10.6344 1.29374 9.54376 2.31507 8.61876C2.97553 8.01876 3.83686 7.98126 4.61307 8.39064C6.53318 9.40314 8.48393 9.38439 10.4211 8.39064C10.6355 8.28126 10.867 8.17814 11.1054 8.13126C11.6637 8.02189 12.1607 8.17501 12.5795 8.52814C13.4783 9.28439 14.1319 10.1906 14.5507 11.2438C14.8605 12.025 15.0137 12.8313 15 13.6625C14.9966 13.9969 15.0273 14.3344 14.9796 14.6594C14.8639 15.4563 14.1557 16 13.2672 16C11.3335 16.0031 9.41335 16 7.48983 16Z"/>
<path d="M7.50694 7.74063C5.19532 7.75001 3.29224 6.01251 3.28202 3.88438C3.27181 1.75626 5.15447 0.00938258 7.4729 7.58388e-06C9.80495 -0.00936742 11.7046 1.71251 11.7148 3.85313C11.7285 5.98438 9.83899 7.73126 7.50694 7.74063Z"/>
</symbol><symbol id="registration" viewBox="0 0 20 20">
<path d="M20 10.0079C19.9922 15.5039 15.4688 20.0196 9.98439 20C4.4922 19.9844 -0.00780234 15.4766 1.01572e-05 9.99223C0.00782266 4.49613 4.53126 -0.0155845 10.0156 4.04626e-05C15.5117 0.0156655 20.0078 4.52348 20 10.0079ZM4.46095 10.1602C5.90235 11.6055 7.35548 13.0586 8.81642 14.5196C11.2188 12.336 13.6328 10.1407 16.0586 7.93363C15.5274 7.3477 15.0078 6.77738 14.4805 6.20317C12.6016 7.9102 10.7344 9.60942 8.85157 11.3164C7.91017 10.375 6.98439 9.45317 6.07423 8.5391C5.53126 9.09379 4.98439 9.64067 4.46095 10.1602Z"/>
</symbol><symbol id="registred" viewBox="0 0 20 20">
<path d="M10 20C7.48558 20 4.96635 20 2.45192 20C0.975962 20 0 19.024 0 17.5481C0 12.5144 0 7.48558 0 2.45192C0 0.975962 0.975962 0 2.45192 0C7.48558 0 12.5144 0 17.5481 0C19.024 0 20 0.975962 20 2.45192C20 7.48558 20 12.5144 20 17.5481C20 19.024 19.024 20 17.5481 20C15.0337 20 12.5192 20 10 20ZM12.3077 4.61538C11.0433 4.61538 9.77885 4.61538 8.50962 4.61538C8.14423 4.61538 7.87019 4.79327 7.75 5.09615C7.53846 5.62019 7.92308 6.14904 8.52404 6.14904C11.0385 6.14904 13.5529 6.14904 16.0673 6.14904C16.5721 6.14904 16.9231 5.82692 16.9183 5.375C16.9135 4.92308 16.5625 4.61538 16.0529 4.61538C14.8077 4.61538 13.5577 4.61538 12.3077 4.61538ZM12.3029 9.23077C11.0385 9.23077 9.77404 9.23077 8.50481 9.23077C8.13942 9.23077 7.86539 9.40865 7.74519 9.71154C7.53365 10.2404 7.91827 10.7644 8.52404 10.7644C11.0288 10.7644 13.5385 10.7644 16.0433 10.7644C16.5721 10.7644 16.9231 10.4471 16.9183 9.98558C16.9135 9.53365 16.5625 9.22596 16.0481 9.22596C14.8029 9.23077 13.5529 9.23077 12.3029 9.23077ZM12.3077 13.8462C11.0433 13.8462 9.77885 13.8462 8.50962 13.8462C8.14423 13.8462 7.87019 14.024 7.74519 14.3269C7.53365 14.851 7.91827 15.3798 8.51923 15.3798C11.024 15.3798 13.5337 15.3798 16.0385 15.3798C16.5673 15.3798 16.9183 15.0673 16.9183 14.6058C16.9135 14.1442 16.5625 13.8462 16.0288 13.8462C14.7885 13.8462 13.5481 13.8462 12.3077 13.8462ZM4.625 6.92308C4.875 6.92308 5.12019 6.92788 5.37019 6.92308C5.82212 6.91346 6.14904 6.60096 6.15385 6.15385C6.16346 5.63942 6.16346 5.12981 6.15385 4.61538C6.14904 4.17788 5.82692 3.85577 5.38942 3.85096C4.875 3.84135 4.36538 3.84135 3.85096 3.85096C3.40385 3.85577 3.08654 4.17789 3.07692 4.62981C3.07212 5.13462 3.07212 5.63942 3.07692 6.14423C3.08173 6.59135 3.40385 6.91346 3.85096 6.92308C4.11058 6.92788 4.36538 6.92308 4.625 6.92308ZM4.63462 8.46154C4.37981 8.46154 4.12019 8.45673 3.86538 8.46154C3.40385 8.47115 3.08173 8.78846 3.07692 9.25C3.07212 9.74519 3.07212 10.2404 3.07692 10.7404C3.08173 11.2019 3.39904 11.5288 3.86058 11.5337C4.36539 11.5385 4.87019 11.5385 5.375 11.5337C5.82212 11.5288 6.14423 11.2067 6.14904 10.7548C6.15385 10.25 6.15385 9.74519 6.14904 9.24039C6.14423 8.78365 5.81731 8.46635 5.35577 8.45673C5.11538 8.46154 4.875 8.46154 4.63462 8.46154ZM4.59615 16.1538C4.85096 16.1538 5.11058 16.1587 5.36538 16.1538C5.82692 16.1442 6.14904 15.8269 6.15385 15.3654C6.15865 14.8702 6.15865 14.375 6.15385 13.875C6.14904 13.4087 5.83173 13.0865 5.37019 13.0817C4.86538 13.0769 4.36058 13.0769 3.85577 13.0817C3.40385 13.0865 3.08654 13.4087 3.08173 13.8558C3.07692 14.3606 3.07692 14.8654 3.08173 15.3702C3.08654 15.8269 3.41346 16.1442 3.875 16.1538C4.11538 16.1587 4.35577 16.1538 4.59615 16.1538Z"/>
</symbol><symbol id="return" viewBox="0 0 20 20">
<path d="M9.9629 11.2147C9.9629 11.9489 9.9629 12.6597 9.9629 13.3666C9.9629 13.679 9.959 13.9915 9.9629 14.3039C9.96681 14.5656 9.87698 14.7804 9.63484 14.8975C9.40051 15.0108 9.18571 14.9639 8.97482 14.8116C6.85804 13.2963 4.74127 11.7849 2.62449 10.2734C1.86292 9.73057 1.10135 9.1838 0.339784 8.64094C-0.109347 8.32069 -0.113253 7.88328 0.335878 7.56303C3.18688 5.52436 6.04179 3.4896 8.8928 1.45094C8.98653 1.38455 9.08417 1.31425 9.19352 1.27519C9.58407 1.1346 9.9629 1.4236 9.9629 1.86883C9.96681 2.67726 9.9629 3.48179 9.9629 4.29023C9.9629 4.53237 9.9629 4.7706 9.9629 5.02837C10.2558 5.07523 10.5448 5.11038 10.826 5.16506C14.9775 6.00474 17.7348 8.44176 19.1408 12.4215C19.6485 13.8665 19.8867 15.3662 19.9649 16.8932C19.9844 17.2955 19.9961 17.6978 20 18.1039C20.0039 18.4476 19.7735 18.7015 19.4532 18.7249C19.1603 18.7483 18.9065 18.5335 18.8323 18.2172C18.059 14.8663 15.9891 12.7222 12.7475 11.6677C11.8532 11.3748 10.9276 11.2498 9.9629 11.2147Z"/>
</symbol></svg>