<svg width="16" height="16" viewBox="0 0 16 16" fill="none" xmlns="http://www.w3.org/2000/svg">
<path d="M7.99063 16.0001C3.56876 15.9907 -0.00624182 12.4094 8.18245e-06 7.9938C0.00625818 3.5688 3.60313 -0.0155741 8.01876 5.08909e-05C12.4438 0.0156759 16.0156 3.60318 16 8.01568C15.9875 12.4376 12.4031 16.0094 7.99063 16.0001ZM14.4313 8.0063C14.4375 4.47193 11.5375 1.57818 7.98438 1.5688C4.48438 1.56255 1.56876 4.4813 1.56876 7.98755C1.56876 11.5251 4.45313 14.4188 7.99063 14.4313C11.5156 14.4438 14.425 11.5407 14.4313 8.0063Z"/>
<path d="M2.55322 8.45C2.69697 8.45 2.84385 8.45 2.9876 8.45C3.31572 8.44687 3.53135 8.25625 3.5251 7.97188C3.51885 7.69688 3.30322 7.50625 2.9876 7.50313C2.84385 7.50313 2.7001 7.50313 2.55322 7.50313C2.76572 4.76563 5.0876 2.71875 7.46572 2.5625C7.46572 2.70625 7.4626 2.85313 7.46572 2.99688C7.47197 3.29375 7.65947 3.49687 7.92822 3.5C8.20322 3.50313 8.40322 3.29688 8.40635 2.99688C8.40947 2.84688 8.40635 2.69688 8.40635 2.54688C11.0001 2.69688 13.2095 4.8375 13.4407 7.44375C13.2563 7.44375 13.0688 7.4375 12.8876 7.44375C12.547 7.45625 12.3282 7.76562 12.4438 8.075C12.5157 8.26875 12.6626 8.37812 12.872 8.38437C13.0626 8.39062 13.2563 8.38437 13.447 8.38437C13.4001 10.6125 11.4845 13.2063 8.47197 13.4563C8.47197 13.25 8.47822 13.0437 8.46885 12.8375C8.45947 12.5812 8.24697 12.3938 7.99385 12.3969C7.74697 12.4 7.54697 12.5875 7.53447 12.8375C7.5251 12.9875 7.53135 13.1406 7.53135 13.2906C7.53135 13.3406 7.53135 13.3938 7.53135 13.4438C5.08447 13.3219 2.7251 11.1875 2.55322 8.45ZM8.00635 7.33125C7.9501 7.27813 7.90947 7.24062 7.86885 7.2C7.13135 6.4625 6.39697 5.72812 5.65947 4.99062C5.61572 4.94687 5.57197 4.9 5.52197 4.86562C5.2501 4.67188 4.8626 4.8125 4.79072 5.13438C4.74385 5.3375 4.8251 5.49687 4.96885 5.6375C5.8501 6.51562 6.72822 7.39687 7.60947 8.275C7.8751 8.54062 8.12822 8.5375 8.39385 8.27188C8.88135 7.7875 9.36572 7.3 9.8501 6.8125C9.88447 6.77812 9.91572 6.74687 9.94385 6.70937C10.1688 6.41875 10.0157 6.01562 9.65322 5.95C9.47197 5.91875 9.32822 5.99062 9.20635 6.11562C8.8126 6.52187 8.41572 6.91875 8.00635 7.33125Z"/>
</svg>
